<?xml version="1.0" encoding="UTF-8"?><svg xmlns="http://www.w3.org/2000/svg" viewBox="0 0 85.66 49.65"><defs><style>.d{fill:#979797;}.e{fill:#fff;}.f{fill:#c5c5c5;}.g{fill:#aeaeae;}.h{fill:#9f9f9f;}.i{fill:#6b6b6b;}.j{fill:#bdbdbd;}.k{fill:gray;}.l{fill:#e6c538;}.m{fill:#737373;}.n{fill:#ebd473;}.o{fill:#dcdcdc;}.p{fill:#888;}</style></defs><g id="a"/><g id="b"><g id="c"><g><path class="e" d="M34.13,32.25c0,9.24-7.49,16.73-16.73,16.73S.67,41.49,.67,32.25,8.16,15.51,17.4,15.51s16.73,7.49,16.73,16.73"/><path class="f" d="M17.4,15.51h0c-.23,0-.45,.02-.67,.03,8.93,.35,16.06,7.68,16.06,16.7s-7.14,16.34-16.06,16.7c.22,0,.44,.03,.67,.03,9.24,0,16.73-7.49,16.73-16.73S26.64,15.51,17.4,15.51"/><path class="e" d="M2.01,32.25c0-9.02,7.14-16.35,16.06-16.7-.22-.01-.44-.03-.67-.03C8.16,15.51,.67,23.01,.67,32.25s7.49,16.73,16.73,16.73c.23,0,.45-.02,.67-.03-8.93-.35-16.06-7.68-16.06-16.7"/><path class="e" d="M85,32.25c0,9.24-7.49,16.73-16.73,16.73s-16.73-7.49-16.73-16.73,7.49-16.73,16.73-16.73,16.73,7.49,16.73,16.73"/><path class="f" d="M68.26,15.51h0c-.23,0-.45,.02-.67,.03,8.93,.35,16.06,7.68,16.06,16.7s-7.14,16.34-16.06,16.7c.22,0,.44,.03,.67,.03,9.24,0,16.73-7.49,16.73-16.73s-7.49-16.73-16.73-16.73"/><path class="e" d="M52.87,32.25c0-9.02,7.14-16.35,16.06-16.7-.22-.01-.44-.03-.67-.03-9.24,0-16.73,7.49-16.73,16.73s7.49,16.73,16.73,16.73c.23,0,.45-.02,.67-.03-8.93-.35-16.06-7.68-16.06-16.7"/><path class="j" d="M71.61,32.25c0,1.85-1.5,3.35-3.35,3.35s-3.35-1.5-3.35-3.35,1.5-3.35,3.35-3.35,3.35,1.5,3.35,3.35"/><path class="j" d="M20.75,32.25c0,1.85-1.5,3.35-3.35,3.35s-3.35-1.5-3.35-3.35,1.5-3.35,3.35-3.35,3.35,1.5,3.35,3.35"/><path class="o" d="M17.4,28.9h-.01c.23,0,.45,.02,.67,.07h0c-.22-.05-.44-.07-.67-.07"/><path class="o" d="M16.72,28.97c-1.52,.31-2.66,1.66-2.66,3.28s1.14,2.96,2.66,3.28c.23-.05,.46-.12,.67-.21-1.18-.52-2-1.69-2-3.06s.82-2.54,2-3.06c-.21-.09-.44-.17-.67-.21m1.34,6.55c-.22,.04-.44,.07-.67,.07h.01c.23,0,.45-.02,.67-.07h0"/><path class="f" d="M17.38,28.9c-.23,0-.45,.02-.67,.07h0c.22-.04,.44-.07,.67-.07h-.01Z"/><path class="d" d="M18.06,28.97c-.23,.05-.46,.12-.67,.21,1.18,.52,2,1.7,2,3.06s-.82,2.54-2,3.06c.21,.09,.44,.17,.67,.21,1.52-.32,2.66-1.66,2.66-3.28s-1.14-2.96-2.66-3.28"/><path class="f" d="M16.72,35.53h0c.22,.05,.44,.07,.67,.07h.01c-.23,0-.45-.02-.67-.07"/><path class="g" d="M17.39,28.9c-.23,0-.45,.02-.67,.07,.23,.05,.46,.12,.67,.21,.21-.09,.44-.17,.67-.21-.22-.04-.44-.07-.67-.07m0,6.41c-.21,.09-.44,.17-.67,.21,.22,.04,.44,.07,.67,.07s.45-.02,.67-.07c-.23-.05-.46-.12-.67-.21"/><path class="e" d="M68.27,28.9h0c.23,0,.45,.02,.67,.07h0c-.22-.04-.44-.07-.67-.07"/><path class="o" d="M68.27,28.9h0c.23,0,.45,.02,.67,.07h0c-.22-.05-.44-.07-.67-.07m-.68,.07c-1.52,.32-2.66,1.66-2.66,3.28s1.14,2.96,2.66,3.28c.23-.05,.46-.12,.67-.21-1.18-.52-2-1.7-2-3.06s.82-2.54,2-3.06c-.21-.09-.44-.17-.67-.21"/><path class="e" d="M68.94,35.53c-.22,.04-.44,.07-.67,.07h0c.23,0,.45-.02,.67-.07h0"/><path class="o" d="M68.93,35.53c-.22,.04-.44,.07-.67,.07h0c.23,0,.45-.02,.67-.07h0"/><path class="f" d="M68.25,28.9c-.23,0-.45,.02-.67,.07h0c.22-.04,.44-.07,.67-.07h0Z"/><path class="d" d="M68.26,28.9c-.23,0-.45,.02-.67,.07h0c.22-.04,.44-.07,.67-.07h0Zm.68,.07c-.23,.05-.46,.12-.67,.21,1.18,.52,2,1.7,2,3.06s-.82,2.54-2,3.06c.21,.09,.44,.17,.67,.21,1.52-.32,2.66-1.66,2.66-3.28s-1.14-2.96-2.66-3.28"/><path class="f" d="M67.58,35.53h0c.22,.04,.44,.07,.67,.07h0c-.23,0-.45-.02-.67-.07"/><path class="d" d="M67.59,35.53h0c.22,.05,.44,.07,.67,.07h0c-.23,0-.45-.02-.67-.07"/><path class="g" d="M68.26,28.9c-.23,0-.45,.02-.67,.07,.23,.05,.46,.12,.67,.21,.21-.09,.44-.17,.67-.21-.22-.04-.44-.07-.67-.07m0,6.41c-.21,.09-.44,.17-.67,.21,.22,.04,.44,.07,.67,.07s.46-.02,.67-.07c-.23-.05-.46-.12-.67-.21"/><path class="l" d="M35.46,2.76c0,1.34-8.03,2.01-9.37,2.01-2.68,0-2.68-2.01-2.68-2.01,2.68-1.34,12.05,0,12.05,0"/><path class="e" d="M27.73,2.16h0m0,0c-1.78,0-3.41,.15-4.3,.6,.89-.45,2.52-.59,4.3-.6m7.74,.6h0m0,.01h0"/><path class="n" d="M27.73,2.16h0c-1.78,0-3.41,.15-4.3,.6,0,0,.02,.61,.47,1.16,.94-.31,2.35-.41,3.87-.41,1.98,0,4.14,.18,5.67,.34,1.14-.28,1.98-.63,2.04-1.04h0v-.03h0v-.02h-.02c-.3-.05-4.25-.59-7.67-.6h-.04"/><path class="j" d="M36.81,34.25c0-1.11,.9-2.01,2.01-2.01s2.01,.9,2.01,2.01c0,.59-.26,1.12-.67,1.49-.35,.32-.82,.52-1.34,.52-1.11,0-2.01-.9-2.01-2.01"/><path class="p" d="M38.82,32.25c-1.11,0-2.01,.9-2.01,2.01s.9,2.01,2.01,2.01c.52,0,.99-.2,1.34-.52,.41-.36,.67-.9,.67-1.49,0-1.11-.9-2.01-2.01-2.01m0,6.69c-2.58,0-4.68-2.1-4.68-4.68s2.1-4.68,4.68-4.68c.32,0,.64,.03,.95,.09,2.13,.44,3.73,2.33,3.73,4.59,0,1.38-.6,2.62-1.57,3.48-.82,.75-1.91,1.21-3.12,1.21"/><path class="h" d="M38.82,29.57c-2.58,0-4.68,2.1-4.68,4.68s2.06,4.64,4.6,4.68c-.19,0-.39-.04-.58-.06,.23-.03,.45-.08,.67-.15-1.94-.57-3.35-2.35-3.35-4.47s1.42-3.9,3.35-4.47c-.22-.06-.45-.12-.69-.15,.23-.03,.45-.06,.69-.06h0Z"/><path class="f" d="M38.83,29.57h0s.07,0,.11,0c-.04,0-.07,0-.11,0m.11,0h0m1.03,.14c2.03,.52,3.53,2.35,3.53,4.54,0,1.38-.6,2.62-1.57,3.48-.82,.75-1.91,1.21-3.12,1.21-.03,0-.06,0-.09,0,.03,0,.06,0,.1,0,2.58,0,4.68-2.1,4.68-4.69,0-2.19-1.51-4.03-3.55-4.54"/><path class="m" d="M38.83,29.57h0c.23,0,.45,.04,.67,.07-.23,.03-.45,.08-.67,.15,1.94,.57,3.35,2.35,3.35,4.47s-1.42,3.89-3.35,4.47c.22,.06,.45,.12,.68,.15-.23,.03-.46,.06-.69,.06h0c1.21,0,2.3-.45,3.12-1.21,.96-.86,1.56-2.1,1.56-3.48,0-2.19-1.5-4.03-3.53-4.54-.33-.08-.67-.13-1.02-.14h-.02s-.07,0-.11,0"/><path class="k" d="M38.83,29.57c-.24,0-.46,.03-.69,.06,.23,.03,.46,.08,.69,.15,.22-.06,.44-.11,.67-.15-.22-.03-.44-.06-.67-.07m0,9.16c-.22,.06-.44,.12-.67,.15,.19,.03,.38,.06,.58,.06h.09c.24,0,.46-.03,.69-.06-.23-.03-.46-.08-.68-.15"/><path class="i" d="M19.31,34.12c-.48,.49-1.15,.8-1.92,.8-.11,0-.24-.01-.38-.02l-.06,.67,.09-.66c-.7-.1-1.3-.44-1.72-.95h0c-.38-.46-.61-1.06-.61-1.7,0-1.37,1.04-2.51,2.37-2.67l-.08-.66v.67c.18,0,.3-.01,.39-.01,.37,0,.67-.3,.67-.67s-.3-.67-.67-.67c-.18,0-.3,.01-.39,.01h-.08c-1.99,.25-3.54,1.94-3.55,4,0,.96,.34,1.86,.92,2.56l.51-.43-.52,.42c.63,.78,1.55,1.29,2.57,1.43h.03c.15,.02,.31,.03,.5,.03,1.13,0,2.15-.47,2.87-1.21,.26-.26,.25-.69-.01-.95-.26-.26-.69-.25-.95,.01"/><path class="i" d="M64.43,16.65c1.23-.31,2.51-.46,3.83-.46,.7,0,1.41,.05,2.11,.13l.08-.66-.09,.66c7.89,1.03,13.97,7.76,13.97,15.93,0,.7-.05,1.41-.13,2.11l.66,.08v-.67h-.01c-.34,0-.62,.25-.66,.58-.92,7.19-6.62,12.89-13.81,13.82-.7,.09-1.39,.14-2.11,.14-4.44,0-8.45-1.8-11.36-4.71-2.91-2.91-4.71-6.92-4.71-11.36,0-.7,.04-1.39,.13-2.05h0c.68-5.31,3.96-9.81,8.51-12.19,.33-.17,.45-.58,.28-.9-.17-.33-.58-.45-.9-.28-4.93,2.58-8.48,7.45-9.22,13.2h0c-.1,.73-.14,1.48-.14,2.23,0,9.61,7.79,17.4,17.4,17.4,.78,0,1.53-.06,2.28-.15,7.8-1.02,13.96-7.18,14.97-14.98l-.66-.09v.67h.01c.34,0,.63-.25,.66-.59,.08-.73,.14-1.49,.14-2.26,0-8.85-6.58-16.15-15.13-17.26h-.01c-.73-.09-1.49-.14-2.26-.14-1.42,0-2.81,.17-4.15,.5-.36,.09-.58,.45-.49,.81,.09,.36,.45,.58,.81,.49Z"/><path class="i" d="M69.01,29.68c1.12,.32,1.92,1.34,1.92,2.57,0,.18-.02,.36-.05,.55l.66,.12-.66-.13c-.25,1.22-1.31,2.14-2.62,2.14-.11,0-.24-.01-.38-.02l-.06,.67,.09-.66c-1.3-.17-2.33-1.3-2.32-2.66,0-.12,.01-.27,.03-.39h0c.05-.38,.19-.75,.38-1.05,.2-.31,.11-.73-.2-.92-.31-.2-.73-.11-.92,.2-.29,.46-.5,1-.58,1.57l.66,.1-.66-.11c-.03,.2-.05,.41-.05,.6,0,2.04,1.52,3.73,3.49,3.98h.03c.15,.02,.31,.03,.5,.03,1.96,0,3.57-1.38,3.94-3.21h0c.05-.26,.08-.52,.08-.8,0-1.82-1.21-3.37-2.89-3.86-.36-.1-.73,.1-.83,.46-.1,.35,.1,.73,.46,.83Z"/><path class="i" d="M30.94,13.74l-.08,.09-.02,.03-13.98,17.98c-.23,.29-.17,.71,.12,.94,.29,.23,.71,.17,.94-.12L31.88,14.69l.07-.08c.24-.28,.21-.7-.07-.94-.28-.24-.7-.21-.94,.07Z"/><path class="i" d="M68.88,32.01L59.53,7.26l-.63,.24h.67l-.04-.25-2.02-5.35c-.13-.35-.52-.52-.86-.39-.35,.13-.52,.52-.39,.86l2.02,5.35,.63-.24h-.67l.04,.25,9.36,24.75c.13,.35,.52,.52,.86,.39,.35-.13,.52-.52,.39-.86Z"/><path class="i" d="M58.45,7h-.01l-.08,.11-15.57,21.83c-.21,.3-.15,.72,.16,.93,.3,.21,.72,.14,.93-.16L59.44,7.88l-.55-.39,.47,.48h.01c.27-.27,.27-.69,.02-.96-.26-.27-.68-.27-.95-.02Z"/><path class="i" d="M36.79,27.9l-4.79-13.85-.95-2.77-2.32-6.7c-.12-.35-.5-.53-.85-.41-.35,.12-.53,.5-.41,.85l2.32,6.69,.95,2.77,4.79,13.86c.12,.35,.5,.54,.85,.41,.35-.12,.54-.5,.41-.85Z"/><path class="i" d="M31.6,14.83l27.45-6.69-.16-.65v.67h.01c.37,0,.67-.3,.67-.67s-.3-.67-.67-.67h-.01l-.16,.02-27.45,6.69c-.36,.09-.58,.45-.49,.81,.09,.36,.45,.58,.81,.49Z"/><path class="i" d="M57.04,2.78l5.35-1.34c.36-.09,.58-.45,.49-.81-.09-.36-.45-.58-.81-.49l-5.35,1.34c-.36,.09-.58,.45-.49,.81,.09,.36,.45,.58,.81,.49"/><path class="i" d="M23.71,3.36c.33-.17,.9-.31,1.61-.4,.7-.09,1.53-.13,2.41-.12,1.75,0,3.67,.15,5.14,.29,.74,.07,1.36,.15,1.81,.2,.44,.05,.69,.09,.7,.09,.37,.05,.71-.2,.76-.57,.05-.37-.2-.71-.57-.76-.02,0-4.19-.6-7.83-.6-.91,0-1.79,.04-2.57,.13-.79,.1-1.47,.25-2.04,.53-.33,.17-.46,.57-.3,.9,.16,.33,.57,.46,.9,.3Z"/><path class="i" d="M18.72,27.65l1.34-10.59c.05-.37-.21-.7-.58-.75-.37-.05-.7,.21-.75,.58l-1.34,10.59c-.05,.37,.21,.7,.58,.75,.37,.05,.7-.21,.75-.58"/><path class="i" d="M17.44,27.43l-1.39-10.55c-.05-.37-.39-.62-.75-.58-.37,.05-.62,.39-.58,.75l1.39,10.55c.05,.37,.39,.62,.75,.58,.37-.05,.62-.39,.58-.75"/><path class="i" d="M15.08,28.05l-6.53-8.43c-.23-.29-.65-.35-.94-.12-.29,.23-.34,.65-.12,.94l6.53,8.43c.23,.29,.65,.35,.94,.12,.29-.23,.35-.65,.12-.94"/><path class="i" d="M14.02,28.81l-8.43-6.48c-.29-.23-.71-.17-.94,.12-.23,.29-.17,.71,.12,.94l8.43,6.48c.29,.23,.71,.17,.94-.12,.23-.29,.17-.71-.12-.94"/><path class="i" d="M12.79,30.91l-10.59-1.34c-.37-.05-.7,.21-.75,.58-.05,.37,.21,.7,.58,.75l10.59,1.34c.37,.05,.7-.21,.75-.58,.05-.37-.21-.7-.58-.75"/><path class="i" d="M12.58,32.21l-10.53,1.38c-.37,.05-.63,.38-.58,.75,.05,.37,.38,.62,.75,.58l10.53-1.38c.37-.05,.62-.38,.58-.75-.05-.37-.38-.62-.75-.58"/><path class="i" d="M13.21,34.56l-8.43,6.55c-.29,.23-.34,.65-.12,.94,.23,.29,.65,.34,.94,.12l8.43-6.55c.29-.23,.34-.65,.12-.94-.23-.29-.65-.34-.94-.12"/><path class="i" d="M13.97,35.63l-6.48,8.43c-.23,.29-.17,.71,.12,.94,.29,.22,.71,.17,.94-.12l6.48-8.43c.23-.29,.17-.71-.12-.94-.29-.23-.71-.17-.94,.12"/><path class="i" d="M16.06,36.85l-1.34,10.59c-.05,.37,.21,.7,.58,.75,.37,.05,.7-.21,.75-.58l1.34-10.59c.05-.37-.21-.7-.58-.75-.37-.05-.7,.21-.75,.58"/><path class="i" d="M17.36,37.06l1.39,10.55c.05,.37,.38,.62,.75,.58,.37-.05,.62-.39,.58-.75l-1.39-10.55c-.05-.37-.39-.62-.75-.58-.37,.05-.62,.39-.58,.75"/><path class="i" d="M23.97,28.09l6.05-4.7c.29-.23,.34-.65,.12-.94-.23-.29-.65-.34-.94-.12l-6.05,4.7c-.29,.23-.34,.65-.12,.94,.23,.29,.65,.34,.94,.12"/><path class="i" d="M25.2,31.89l7.56-.99c.37-.05,.62-.38,.58-.75-.05-.37-.38-.62-.75-.58l-7.56,.99c-.37,.05-.62,.38-.58,.75,.05,.37,.38,.62,.75,.58"/><path class="i" d="M19.71,36.44l6.53,8.43c.23,.29,.65,.35,.94,.12,.29-.23,.34-.65,.12-.94l-6.53-8.43c-.23-.29-.65-.35-.94-.12-.29,.23-.35,.65-.12,.94"/><path class="i" d="M20.77,35.68l8.43,6.46c.29,.23,.71,.17,.94-.12,.23-.29,.17-.71-.12-.94l-8.43-6.47c-.29-.22-.71-.17-.94,.12-.23,.29-.17,.71,.12,.94"/><path class="i" d="M17.3,32.91l15.39,2.01c.37,.05,.7-.21,.75-.58,.05-.37-.21-.7-.58-.75l-15.39-2.01c-.37-.05-.7,.21-.75,.58-.05,.37,.21,.7,.58,.75"/><path class="i" d="M32.54,37.62c-.77,2.19-2.03,4.24-3.79,5.99h0c-2.6,2.6-5.87,4.13-9.26,4.56-.7,.09-1.41,.14-2.11,.14-4.1,0-8.19-1.56-11.33-4.7-.59-.59-1.12-1.21-1.59-1.86h0c-2.07-2.82-3.11-6.16-3.11-9.51,0-4.11,1.57-8.22,4.71-11.35,2.61-2.61,5.87-4.12,9.26-4.56,.7-.09,1.4-.14,2.1-.14,2.88,0,5.76,.77,8.3,2.31,.32,.19,.73,.09,.92-.23,.19-.32,.09-.73-.23-.92-2.76-1.67-5.87-2.5-8.99-2.5-.76,0-1.52,.05-2.27,.15-3.67,.47-7.21,2.12-10.04,4.94C1.7,23.33,0,27.79,0,32.24,0,35.86,1.13,39.48,3.37,42.53h0c.51,.71,1.09,1.38,1.73,2.02,3.39,3.4,7.84,5.09,12.28,5.09,.76,0,1.53-.05,2.28-.15,3.67-.47,7.22-2.13,10.04-4.94h0c1.91-1.89,3.27-4.12,4.11-6.49,.12-.35-.06-.73-.41-.85-.35-.12-.73,.06-.85,.41Z"/><path class="i" d="M69.59,27.65l1.34-10.59c.05-.37-.21-.7-.58-.75-.37-.05-.7,.21-.75,.58l-1.34,10.59c-.05,.37,.21,.7,.58,.75,.37,.05,.7-.21,.75-.58"/><path class="i" d="M67.77,23.42l-.86-6.53c-.05-.37-.38-.62-.75-.58-.37,.05-.62,.39-.58,.75l.86,6.53c.05,.37,.38,.62,.75,.58,.37-.05,.62-.38,.58-.75"/><path class="i" d="M66.92,36.85l-1.34,10.59c-.05,.37,.21,.7,.58,.75,.37,.05,.7-.21,.75-.58l1.34-10.59c.05-.37-.21-.7-.58-.75-.37-.05-.7,.21-.75,.58"/><path class="i" d="M68.22,37.06l1.39,10.55c.05,.37,.38,.62,.75,.58,.37-.05,.62-.39,.58-.75l-1.39-10.55c-.05-.37-.39-.62-.75-.58-.37,.05-.62,.39-.58,.75"/><path class="i" d="M64.55,26.19l-5.13-6.6c-.23-.29-.65-.34-.94-.12-.29,.23-.34,.65-.12,.94l5.13,6.6c.23,.29,.65,.34,.94,.12,.29-.23,.34-.65,.12-.94"/><path class="i" d="M64.89,28.81l-8.43-6.48c-.29-.23-.71-.17-.94,.12-.23,.29-.17,.71,.12,.94l8.43,6.48c.29,.23,.71,.17,.94-.12,.23-.29,.17-.71-.12-.94"/><path class="i" d="M70.56,36.44l6.55,8.43c.23,.29,.65,.34,.94,.12,.29-.23,.34-.65,.12-.94l-6.55-8.43c-.23-.29-.65-.34-.94-.12-.29,.23-.34,.65-.12,.94"/><path class="i" d="M71.64,35.68l8.43,6.48c.29,.23,.71,.17,.94-.12,.23-.29,.17-.71-.12-.94l-8.43-6.48c-.29-.23-.71-.17-.94,.12-.23,.29-.17,.71,.12,.94"/><path class="i" d="M63.67,30.91l-10.59-1.34c-.37-.05-.7,.21-.75,.58-.05,.37,.21,.7,.58,.75l10.59,1.34c.37,.05,.7-.21,.75-.58,.05-.37-.21-.7-.58-.75"/><path class="i" d="M63.44,32.21l-10.53,1.38c-.37,.05-.63,.38-.58,.75,.05,.37,.38,.62,.75,.58l10.53-1.38c.37-.05,.62-.38,.58-.75s-.38-.62-.75-.58"/><path class="i" d="M72.87,33.58l10.59,1.34c.37,.05,.7-.21,.75-.58,.05-.37-.21-.7-.58-.75l-10.59-1.34c-.37-.05-.7,.21-.75,.58-.05,.37,.21,.7,.58,.75"/><path class="i" d="M73.08,32.28l10.54-1.38c.37-.05,.62-.38,.58-.75-.05-.37-.38-.62-.75-.58l-10.53,1.38c-.37,.05-.63,.38-.58,.75,.05,.37,.38,.62,.75,.58"/><path class="i" d="M64.07,34.56l-8.43,6.55c-.29,.23-.34,.65-.12,.94,.23,.29,.65,.34,.94,.12l8.43-6.55c.29-.23,.34-.65,.12-.94-.23-.29-.65-.34-.94-.12"/><path class="i" d="M64.83,35.63l-6.48,8.43c-.23,.29-.17,.71,.12,.94,.29,.22,.71,.17,.94-.12l6.48-8.43c.23-.29,.17-.71-.12-.94s-.71-.17-.94,.12"/><path class="i" d="M72.47,29.94l8.43-6.55c.29-.23,.34-.65,.12-.94-.23-.29-.65-.34-.94-.12l-8.43,6.55c-.29,.23-.34,.65-.12,.94,.23,.29,.65,.34,.94,.12"/><path class="i" d="M71.69,28.87l6.48-8.43c.23-.29,.17-.71-.12-.94-.29-.22-.71-.17-.94,.12l-6.48,8.43c-.23,.29-.17,.71,.12,.94,.29,.23,.71,.17,.94-.12"/><path class="i" d="M28.75,20.89c2.52,2.51,4.02,5.64,4.52,8.9,.06,.36,.4,.62,.76,.56,.36-.05,.62-.4,.56-.76-.54-3.53-2.17-6.94-4.9-9.65-.26-.26-.69-.26-.95,0-.26,.26-.26,.69,0,.95Z"/><path class="i" d="M22.75,2.76c0,.07,0,.7,.45,1.37,.44,.69,1.4,1.32,2.9,1.3,.37,0,.67-.3,.67-.67s-.3-.67-.67-.67c-1.18-.02-1.56-.39-1.79-.71-.11-.17-.17-.34-.2-.46l-.02-.15v-.03h0c0-.36-.3-.66-.67-.66s-.67,.3-.67,.67Z"/><path class="i" d="M26.09,5.44c.74,0,3.07-.17,5.29-.51,1.11-.17,2.18-.38,3.01-.65,.42-.14,.78-.28,1.09-.48,.15-.1,.3-.22,.42-.38,.12-.16,.23-.39,.23-.65,0-.37-.3-.67-.67-.67s-.67,.3-.67,.67h.26l-.21-.16-.04,.16h.26l-.21-.16h-.01c-.05,.06-.23,.18-.5,.28-.94,.38-2.78,.7-4.47,.91-1.69,.21-3.29,.31-3.76,.31-.37,0-.67,.3-.67,.67s.3,.67,.67,.67"/><path class="i" d="M30.39,12.17h1.06c.37,0,.67-.3,.67-.67s-.3-.67-.67-.67h-1.06c-.37,0-.67,.3-.67,.67s.3,.67,.67,.67"/><path class="i" d="M40.83,34.25h-.67c0,.4-.17,.74-.44,.98h-.01c-.23,.22-.54,.36-.89,.36-.74,0-1.34-.6-1.34-1.34s.6-1.34,1.34-1.34,1.34,.6,1.34,1.34h1.34c0-1.48-1.2-2.67-2.68-2.68-1.48,0-2.67,1.2-2.68,2.68,0,1.48,1.2,2.67,2.68,2.68,.7,0,1.33-.27,1.79-.7l-.45-.49,.44,.5c.56-.49,.9-1.21,.9-1.99h-.67Z"/><path class="i" d="M38.32,34.7l1.34,1.49h0l1.78,1.99,2.89,3.22c.25,.27,.67,.3,.94,.05,.27-.25,.3-.67,.05-.94l-2.89-3.21-1.78-1.99h0l-1.34-1.49c-.25-.27-.67-.3-.94-.05-.27,.25-.3,.67-.05,.94"/><path class="i" d="M42.15,41.62h4.68c.37,0,.67-.3,.67-.67s-.3-.67-.67-.67h-4.68c-.37,0-.67,.3-.67,.67s.3,.67,.67,.67"/><path class="i" d="M62.44,1.43c.19-.06,.35-.09,.47-.09,.27,.01,.38,.08,.51,.25,.12,.16,.22,.46,.22,.8,0,.43-.15,.91-.39,1.23-.25,.32-.55,.51-1.01,.52-.37,0-.67,.3-.67,.67s.3,.67,.67,.67c.9,0,1.64-.45,2.08-1.05,.45-.6,.66-1.33,.66-2.04,0-.56-.13-1.13-.47-1.59-.33-.47-.92-.8-1.59-.79-.29,0-.58,.05-.89,.16-.35,.12-.54,.5-.42,.85,.12,.35,.5,.54,.85,.42Z"/><path class="i" d="M39.77,29.66l-.14,.65c1.82,.38,3.2,2,3.2,3.94,0,1.18-.51,2.24-1.34,2.98h0c-.7,.65-1.63,1.04-2.67,1.04-1.11,0-2.11-.45-2.84-1.18-.73-.73-1.18-1.73-1.18-2.84s.45-2.11,1.18-2.84c.73-.73,1.73-1.18,2.84-1.18,.29,0,.56,.02,.81,.08h0l.14-.65,.14-.65c-.37-.08-.74-.11-1.09-.11-2.95,0-5.35,2.4-5.35,5.35,0,2.95,2.4,5.35,5.35,5.35,1.37,0,2.64-.52,3.57-1.38l-.45-.49,.44,.5c1.1-.98,1.79-2.4,1.79-3.98,0-2.59-1.83-4.74-4.27-5.25l-.14,.65,.14-.65-.14,.65Z"/></g></g></g></svg>