<?xml version="1.0" encoding="UTF-8"?><svg xmlns="http://www.w3.org/2000/svg" xmlns:xlink="http://www.w3.org/1999/xlink" viewBox="0 0 82.78 55.62"><defs><style>.h{fill:#afb1b3;}.i{fill:#686e77;}.j{fill:#6b6e74;}.k{fill:#c4c8d0;}.l{fill:#959595;}.m{fill:#e0e0e0;}.n{fill:#6b6b6b;}.o{fill:#80818a;}.p{fill:#e3d279;}.q{fill:#a3a3a3;}.r{fill:#ae9a3c;}.s{clip-path:url(#e);}.t{fill:#dddfe4;}.u{clip-path:url(#d);}.v{fill:#bebebe;}.w{fill:none;}.x{fill:#474747;}.y{clip-path:url(#f);}.a`{fill:#9a9a9a;}.aa{fill:#dbc348;}.ab{fill:#a4a8b3;}.ac{fill:#3d3b48;}.ad{fill:#545861;}.ae{fill:#d2d2d2;}.af{fill:#80868c;}.ag{clip-path:url(#g);}.ah{fill:#9a9ca3;}</style><clipPath id="d"><rect class="w" width="82.78" height="55.62"/></clipPath><clipPath id="e"><rect class="w" width="82.78" height="55.62"/></clipPath><clipPath id="f"><rect class="w" width="82.78" height="55.62"/></clipPath><clipPath id="g"><rect class="w" width="82.78" height="55.62"/></clipPath></defs><g id="a"/><g id="b"><g id="c"><g><rect class="m" x=".65" y=".65" width="53.03" height="43.98"/><g class="u"><path class="n" d="M1.94,44.22v-.65h-.65v.65h.65v0h.65V.65c0-.17-.07-.34-.19-.46C2.28,.07,2.11,0,1.94,0H.65C.48,0,.31,.07,.19,.19S0,.48,0,.65V44.22c0,.17,.07,.34,.19,.46,.12,.12,.29,.19,.46,.19H1.94c.17,0,.34-.07,.46-.19,.12-.12,.19-.29,.19-.46h-.65Z"/></g><rect class="a`" x="52.39" y=".65" width="1.29" height="43.57"/><polygon class="ab" points="53.68 48.51 7.11 48.51 3.23 44.62 53.68 44.62 53.68 48.51"/><g class="s"><path class="af" d="M53.68,44.62H17.89c.46,.37,.85,.81,1.18,1.29H53.68v-1.29Zm-43.11,0H3.23l1.29,1.29h4.86c.33-.49,.73-.92,1.18-1.29"/><path class="i" d="M65.32,40.74h-9.05l-2.59,3.88v6.47h2.92v-3.88h13.9s0-6.47-5.17-6.47"/><path class="ad" d="M65.32,40.74h-9.05l-2.59,3.88v6.47h2.92c-.22-.61-.33-1.26-.33-1.94,0-3.21,2.61-5.82,5.82-5.82,2.53,0,4.69,1.62,5.49,3.88h2.92s0-6.47-5.17-6.47"/><path class="q" d="M64.03,20.05c11.89,0,14.67,10.58,15.31,15.52h-2.38c-5.17,0-3.88-6.47-9.05-6.47h-11.64v-9.05h7.76Z"/><path class="i" d="M20.05,49.15c0,3.21-2.61,5.82-5.82,5.82s-5.82-2.61-5.82-5.82,2.61-5.82,5.82-5.82,5.82,2.61,5.82,5.82"/><path class="o" d="M14.23,43.33c-3.21,0-5.82,2.61-5.82,5.82s2.61,5.82,5.82,5.82c-.22,0-.43-.04-.65-.07,.22-.02,.44-.06,.65-.11-2.59-.59-4.53-2.88-4.53-5.65s1.94-5.06,4.53-5.65c-.21-.05-.43-.08-.65-.11,.21-.03,.42-.07,.65-.07"/><path class="ad" d="M14.23,43.33c.22,0,.43,.04,.65,.07-.22,.03-.44,.06-.65,.11,2.59,.59,4.53,2.88,4.53,5.65s-1.94,5.06-4.53,5.65c.21,.05,.43,.09,.65,.11-.21,.03-.42,.07-.65,.07,3.21,0,5.82-2.61,5.82-5.82,0-1.2-.36-2.31-.98-3.23-.33-.49-.73-.93-1.18-1.29-1-.81-2.27-1.29-3.66-1.29"/><path class="j" d="M14.23,43.33h0c-.22,0-.43,.04-.65,.07,.22,.02,.44,.06,.65,.11,.21-.05,.43-.09,.65-.11-.21-.03-.42-.07-.65-.07m0,11.47c-.21,.05-.43,.08-.65,.11,.21,.03,.42,.07,.65,.07s.43-.04,.65-.07c-.22-.03-.44-.06-.65-.11"/><path class="k" d="M17.46,49.15c0,1.78-1.45,3.23-3.23,3.23s-3.23-1.45-3.23-3.23,1.45-3.23,3.23-3.23,3.23,1.45,3.23,3.23"/><path class="t" d="M14.23,45.92c-1.78,0-3.23,1.45-3.23,3.23s1.45,3.23,3.23,3.23c-.22,0-.44-.02-.65-.07,.22-.05,.44-.11,.65-.2-1.14-.5-1.94-1.64-1.94-2.96s.8-2.46,1.94-2.96c-.21-.09-.42-.16-.65-.2,.21-.04,.42-.07,.65-.07"/><path class="ah" d="M14.23,45.92c.22,0,.44,.02,.65,.07-.22,.05-.44,.11-.65,.2,1.14,.5,1.94,1.64,1.94,2.96s-.8,2.46-1.94,2.96c.21,.09,.42,.16,.65,.2-.21,.04-.42,.07-.65,.07,1.78,0,3.23-1.45,3.23-3.23s-1.45-3.23-3.23-3.23"/><path class="h" d="M14.23,45.92h0c-.22,0-.44,.02-.65,.07,.22,.05,.44,.11,.65,.2,.21-.09,.42-.16,.65-.2-.21-.04-.42-.07-.65-.07m0,6.2c-.21,.09-.42,.16-.65,.2,.21,.04,.42,.07,.65,.07s.44-.02,.65-.07c-.22-.05-.44-.11-.65-.2"/><path class="i" d="M67.91,49.15c0,3.21-2.61,5.82-5.82,5.82s-5.82-2.61-5.82-5.82,2.61-5.82,5.82-5.82,5.82,2.61,5.82,5.82"/><path class="o" d="M62.09,43.33c-3.21,0-5.82,2.61-5.82,5.82s2.61,5.82,5.82,5.82c-.22,0-.43-.04-.65-.07,.22-.02,.44-.06,.65-.11-2.59-.59-4.53-2.88-4.53-5.65s1.94-5.06,4.53-5.65c-.21-.05-.43-.08-.65-.11,.21-.03,.42-.07,.65-.07"/><path class="ad" d="M62.09,43.33c.22,0,.43,.04,.65,.07-.22,.03-.44,.06-.65,.11,2.59,.59,4.53,2.88,4.53,5.65s-1.94,5.06-4.53,5.65c.21,.05,.43,.09,.65,.11-.21,.03-.42,.07-.65,.07,3.21,0,5.82-2.61,5.82-5.82s-2.61-5.82-5.82-5.82"/><path class="j" d="M62.09,43.33h0c-.22,0-.43,.04-.65,.07,.22,.02,.44,.06,.65,.11,.21-.05,.43-.09,.65-.11-.21-.03-.42-.07-.65-.07m0,11.47c-.21,.05-.43,.08-.65,.11,.21,.03,.42,.07,.65,.07s.43-.04,.65-.07c-.22-.03-.44-.06-.65-.11"/><path class="k" d="M65.32,49.15c0,1.78-1.45,3.23-3.23,3.23s-3.23-1.45-3.23-3.23,1.45-3.23,3.23-3.23,3.23,1.45,3.23,3.23"/><path class="t" d="M62.09,45.92c-1.78,0-3.23,1.45-3.23,3.23s1.45,3.23,3.23,3.23c-.22,0-.44-.02-.65-.07,.22-.05,.44-.11,.65-.2-1.14-.5-1.94-1.64-1.94-2.96s.8-2.46,1.94-2.96c-.21-.09-.42-.16-.65-.2,.21-.04,.42-.07,.65-.07"/><path class="ah" d="M62.09,45.92c.22,0,.44,.02,.65,.07-.22,.05-.44,.11-.65,.2,1.14,.5,1.94,1.64,1.94,2.96s-.8,2.46-1.94,2.96c.21,.09,.42,.16,.65,.2-.21,.04-.42,.07-.65,.07,1.78,0,3.23-1.45,3.23-3.23s-1.45-3.23-3.23-3.23"/><path class="h" d="M62.09,45.92h0c-.22,0-.44,.02-.65,.07,.22,.05,.44,.11,.65,.2,.21-.09,.42-.16,.65-.2-.21-.04-.42-.07-.65-.07m0,6.2c-.21,.09-.42,.16-.65,.2,.21,.04,.42,.07,.65,.07s.44-.02,.65-.07c-.22-.05-.44-.11-.65-.2"/></g><polygon class="t" points="80.84 42.04 80.84 43.33 78.28 43.33 78.25 43.33 78.25 39.45 80.84 39.45 80.84 42.04"/><polygon class="i" points="80.84 43.33 78.28 43.33 78.26 43.33 78.26 47.21 82.14 47.21 82.14 43.33 80.84 43.33"/><g class="y"><path class="aa" d="M56.27,40.64v-11.54h11.64c5.17,0,3.88,6.47,9.05,6.47h2.38c.21,1.54,.21,2.56,.21,2.59l-1.29,1.29v7.76h-7.76s0-6.47-5.17-6.47h-9.05v-.1Z"/><path class="r" d="M79.34,35.57h-1.29c.21,1.54,.21,2.02,.21,2.04l-1.29,1.29v8.31h1.29v-7.76l1.29-1.29s0-1.05-.21-2.59"/><path class="v" d="M64.61,20.08l-2.42,9.02h2.68l2.34-8.74c-.81-.15-1.68-.25-2.6-.28"/><path class="v" d="M67.85,20.47l-2.31,8.63h.67l2.27-8.46c-.21-.06-.41-.12-.63-.17"/></g><rect class="p" x="56.27" y="29.1" width="1.29" height="11.64"/><polygon class="ad" points="79.55 43.33 78.28 43.33 78.26 43.33 78.26 47.21 79.55 47.21 79.55 43.33"/><rect class="ad" x="80.84" y="43.33" width="1.29" height="3.88"/><g class="ag"><path class="aa" d="M39.45,22.64c0,6.43-5.21,11.64-11.64,11.64s-11.64-5.21-11.64-11.64,5.21-11.64,11.64-11.64,11.64,5.21,11.64,11.64"/><path class="ae" d="M27.81,10.99c-6.43,0-11.64,5.21-11.64,11.64,0-6.43,5.21-11.64,11.64-11.64h0m.03,23.28h0"/><path class="l" d="M27.81,10.99c-6.43,0-11.64,5.21-11.64,11.64s5.21,11.64,11.64,11.64h.03c.43,0,.85-.03,1.26-.08-5.82-.65-10.35-5.58-10.35-11.57s4.53-10.92,10.35-11.57c-.42-.04-.84-.07-1.27-.08h-.03"/><path class="n" d="M64.03,20.05v-.65h-7.76c-.17,0-.34,.07-.46,.19-.12,.12-.19,.29-.19,.46v20.7c0,.17,.07,.34,.19,.46,.12,.12,.29,.19,.46,.19h9.05c1.16,0,1.96,.35,2.58,.86,.93,.77,1.44,2,1.69,3.06,.13,.53,.19,1.01,.22,1.36,.02,.17,.02,.31,.03,.4v.13c0,.17,.07,.34,.19,.46,.12,.12,.29,.19,.46,.19h7.76c.17,0,.34-.07,.46-.19,.12-.12,.19-.29,.19-.46v-7.49l1.1-1.1c.12-.12,.19-.29,.19-.46,0-.1,0-4.69-2-9.35-1-2.33-2.51-4.68-4.81-6.46-2.29-1.78-5.36-2.95-9.36-2.95v1.29c3.75,0,6.5,1.08,8.57,2.68,3.1,2.4,4.7,6.06,5.5,9.17,.8,3.1,.81,5.61,.8,5.61h.65l-.46-.46-1.29,1.29c-.12,.12-.19,.29-.19,.46v7.11h-7.11v.65h.65s0-1.72-.69-3.47c-.35-.88-.89-1.78-1.72-2.48-.83-.7-1.98-1.17-3.41-1.16h-9.05v.65h.65V20.7h7.11v-.65Z"/><path class="n" d="M81.49,42.04v-2.59c0-.36-.29-.65-.65-.65s-.65,.29-.65,.65v2.59c0,.36,.29,.65,.65,.65s.65-.29,.65-.65"/><path class="n" d="M79.57,43.98h2.56c.36,0,.65-.29,.65-.65s-.29-.65-.65-.65h-2.56c-.36,0-.65,.29-.65,.65s.29,.65,.65,.65"/><path class="n" d="M81.49,43.33v3.88c0,.36,.29,.65,.65,.65s.65-.29,.65-.65v-3.88c0-.36-.29-.65-.65-.65s-.65,.29-.65,.65"/><path class="n" d="M82.14,46.56h-2.59c-.36,0-.65,.29-.65,.65s.29,.65,.65,.65h2.59c.36,0,.65-.29,.65-.65s-.29-.65-.65-.65"/><path class="x" d="M67.91,49.15h-.65c0,1.43-.58,2.72-1.52,3.66-.94,.94-2.23,1.52-3.66,1.52s-2.72-.58-3.66-1.52c-.94-.94-1.52-2.23-1.52-3.66s.58-2.72,1.52-3.66c.94-.94,2.23-1.52,3.66-1.52s2.72,.58,3.66,1.52c.94,.94,1.52,2.23,1.52,3.66h1.29c0-3.57-2.9-6.47-6.47-6.47s-6.47,2.9-6.47,6.47,2.9,6.47,6.47,6.47,6.47-2.9,6.47-6.47h-.65Z"/><path class="x" d="M65.32,49.15h-.65c0,1.43-1.16,2.58-2.59,2.59-1.42,0-2.58-1.16-2.59-2.59,0-1.43,1.16-2.58,2.59-2.59,1.43,0,2.58,1.16,2.59,2.59h1.29c0-2.14-1.74-3.88-3.88-3.88-2.14,0-3.88,1.74-3.88,3.88,0,2.14,1.74,3.88,3.88,3.88,2.14,0,3.88-1.74,3.88-3.88h-.65Z"/><path class="ac" d="M62.09,47.86c.17,0,.34-.07,.46-.19,.12-.12,.19-.29,.19-.46s-.07-.34-.19-.46-.29-.19-.46-.19-.34,.07-.46,.19-.19,.29-.19,.46,.07,.34,.19,.46c.12,.12,.29,.19,.46,.19"/><path class="ac" d="M62.09,51.74c.17,0,.34-.07,.46-.19,.12-.12,.19-.29,.19-.46s-.07-.34-.19-.46-.29-.19-.46-.19-.34,.07-.46,.19-.19,.29-.19,.46,.07,.34,.19,.46c.12,.12,.29,.19,.46,.19"/><path class="ac" d="M60.41,48.83c.17,0,.34-.07,.46-.19,.12-.12,.19-.29,.19-.46s-.07-.34-.19-.46c-.12-.12-.29-.19-.46-.19s-.34,.07-.46,.19c-.12,.12-.19,.29-.19,.46s.07,.34,.19,.46c.12,.12,.29,.19,.46,.19"/><path class="ac" d="M63.77,50.77c.17,0,.34-.07,.46-.19,.12-.12,.19-.29,.19-.46s-.07-.34-.19-.46c-.12-.12-.29-.19-.46-.19s-.34,.07-.46,.19c-.12,.12-.19,.29-.19,.46s.07,.34,.19,.46c.12,.12,.29,.19,.46,.19"/><path class="ac" d="M60.41,50.77c.17,0,.34-.07,.46-.19,.12-.12,.19-.29,.19-.46s-.07-.34-.19-.46c-.12-.12-.29-.19-.46-.19s-.34,.07-.46,.19c-.12,.12-.19,.29-.19,.46s.07,.34,.19,.46c.12,.12,.29,.19,.46,.19"/><path class="ac" d="M63.77,48.83c.17,0,.34-.07,.46-.19,.12-.12,.19-.29,.19-.46s-.07-.34-.19-.46c-.12-.12-.29-.19-.46-.19s-.34,.07-.46,.19c-.12,.12-.19,.29-.19,.46s.07,.34,.19,.46c.12,.12,.29,.19,.46,.19"/><path class="ac" d="M62.09,49.8c.17,0,.34-.07,.46-.19,.12-.12,.19-.29,.19-.46s-.07-.34-.19-.46c-.12-.12-.29-.19-.46-.19s-.34,.07-.46,.19c-.12,.12-.19,.29-.19,.46s.07,.34,.19,.46c.12,.12,.29,.19,.46,.19"/><path class="x" d="M20.05,49.15h-.65c0,1.43-.58,2.72-1.52,3.66-.94,.94-2.23,1.52-3.66,1.52s-2.72-.58-3.66-1.52c-.94-.94-1.52-2.23-1.52-3.66s.58-2.72,1.52-3.66c.94-.94,2.23-1.52,3.66-1.52s2.72,.58,3.66,1.52c.94,.94,1.52,2.23,1.52,3.66h1.29c0-3.57-2.9-6.47-6.47-6.47s-6.47,2.9-6.47,6.47,2.9,6.47,6.47,6.47,6.47-2.9,6.47-6.47h-.65Z"/><path class="x" d="M17.46,49.15h-.65c0,1.43-1.16,2.58-2.59,2.59-1.42,0-2.58-1.16-2.59-2.59,0-1.43,1.16-2.58,2.59-2.59,1.43,0,2.58,1.16,2.59,2.59h1.29c0-2.14-1.74-3.88-3.88-3.88-2.14,0-3.88,1.74-3.88,3.88,0,2.14,1.74,3.88,3.88,3.88,2.14,0,3.88-1.74,3.88-3.88h-.65Z"/><path class="ac" d="M14.23,47.86c.17,0,.34-.07,.46-.19,.12-.12,.19-.29,.19-.46s-.07-.34-.19-.46c-.12-.12-.29-.19-.46-.19s-.34,.07-.46,.19c-.12,.12-.19,.29-.19,.46s.07,.34,.19,.46c.12,.12,.29,.19,.46,.19"/><path class="ac" d="M14.23,51.74c.17,0,.34-.07,.46-.19,.12-.12,.19-.29,.19-.46s-.07-.34-.19-.46c-.12-.12-.29-.19-.46-.19s-.34,.07-.46,.19c-.12,.12-.19,.29-.19,.46s.07,.34,.19,.46c.12,.12,.29,.19,.46,.19"/><path class="ac" d="M12.55,48.83c.17,0,.34-.07,.46-.19,.12-.12,.19-.29,.19-.46s-.07-.34-.19-.46c-.12-.12-.29-.19-.46-.19s-.34,.07-.46,.19c-.12,.12-.19,.29-.19,.46s.07,.34,.19,.46c.12,.12,.29,.19,.46,.19"/><path class="ac" d="M15.91,50.77c.17,0,.34-.07,.46-.19,.12-.12,.19-.29,.19-.46s-.07-.34-.19-.46c-.12-.12-.29-.19-.46-.19s-.34,.07-.46,.19c-.12,.12-.19,.29-.19,.46s.07,.34,.19,.46c.12,.12,.29,.19,.46,.19"/><path class="ac" d="M12.55,50.77c.17,0,.34-.07,.46-.19,.12-.12,.19-.29,.19-.46s-.07-.34-.19-.46c-.12-.12-.29-.19-.46-.19s-.34,.07-.46,.19c-.12,.12-.19,.29-.19,.46s.07,.34,.19,.46c.12,.12,.29,.19,.46,.19"/><path class="ac" d="M15.91,48.83c.17,0,.34-.07,.46-.19,.12-.12,.19-.29,.19-.46s-.07-.34-.19-.46c-.12-.12-.29-.19-.46-.19s-.34,.07-.46,.19c-.12,.12-.19,.29-.19,.46s.07,.34,.19,.46c.12,.12,.29,.19,.46,.19"/><path class="ac" d="M14.23,49.8c.17,0,.34-.07,.46-.19,.12-.12,.19-.29,.19-.46s-.07-.34-.19-.46c-.12-.12-.29-.19-.46-.19s-.34,.07-.46,.19c-.12,.12-.19,.29-.19,.46s.07,.34,.19,.46c.12,.12,.29,.19,.46,.19"/><path class="n" d="M58.85,29.75h9.05c1.16,0,1.85,.34,2.44,.85,.89,.77,1.46,2.08,2.31,3.3,.43,.61,.95,1.19,1.65,1.63,.7,.43,1.58,.69,2.65,.69,.36,0,.65-.29,.65-.65s-.29-.65-.65-.65c-1.16,0-1.85-.34-2.44-.85-.89-.77-1.46-2.08-2.31-3.3-.43-.61-.95-1.19-1.65-1.63-.7-.43-1.58-.69-2.65-.69h-9.05c-.36,0-.65,.29-.65,.65s.29,.65,.65,.65"/><path class="ac" d="M58.85,34.92h2.59c.36,0,.65-.29,.65-.65s-.29-.65-.65-.65h-2.59c-.36,0-.65,.29-.65,.65s.29,.65,.65,.65"/><path class="n" d="M55.72,40.29l-2.59,3.98c-.19,.3-.11,.7,.19,.89,.3,.19,.7,.11,.89-.19l2.59-3.98c.19-.3,.11-.7-.19-.89-.3-.19-.7-.11-.89,.19"/><path class="n" d="M53.03,44.62v6.47c0,.36,.29,.65,.65,.65s.65-.29,.65-.65v-6.47c0-.36-.29-.65-.65-.65s-.65,.29-.65,.65"/><path class="n" d="M52.39,47.86H21.34c-.36,0-.65,.29-.65,.65s.29,.65,.65,.65h31.04c.36,0,.65-.29,.65-.65s-.29-.65-.65-.65"/><path class="n" d="M52.39,43.98H20.05c-.36,0-.65,.29-.65,.65s.29,.65,.65,.65H52.39c.36,0,.65-.29,.65-.65s-.29-.65-.65-.65"/><path class="n" d="M54.33,40.74V.65C54.33,.29,54.04,0,53.68,0s-.65,.29-.65,.65V40.74c0,.36,.29,.65,.65,.65s.65-.29,.65-.65"/><path class="n" d="M53.68,0H.65C.29,0,0,.29,0,.65s.29,.65,.65,.65H53.68c.36,0,.65-.29,.65-.65S54.04,0,53.68,0"/><path class="n" d="M0,.65V44.62c0,.36,.29,.65,.65,.65s.65-.29,.65-.65V.65C1.29,.29,1,0,.65,0S0,.29,0,.65"/><path class="n" d="M.65,45.27h7.76c.36,0,.65-.29,.65-.65s-.29-.65-.65-.65H.65C.29,43.98,0,44.27,0,44.62s.29,.65,.65,.65"/><path class="n" d="M4.07,46.38l2.59,2.59c.25,.25,.66,.25,.91,0,.25-.25,.25-.66,0-.91l-2.59-2.59c-.25-.25-.66-.25-.91,0s-.25,.66,0,.91"/><path class="n" d="M1.94,47.86h3.88c.36,0,.65-.29,.65-.65s-.29-.65-.65-.65H1.94c-.36,0-.65,.29-.65,.65s.29,.65,.65,.65"/><path class="n" d="M27.16,47.21v1.29c0,.36,.29,.65,.65,.65s.65-.29,.65-.65v-1.29c0-.36-.29-.65-.65-.65s-.65,.29-.65,.65"/><path class="n" d="M34.92,47.21v1.29c0,.36,.29,.65,.65,.65s.65-.29,.65-.65v-1.29c0-.36-.29-.65-.65-.65s-.65,.29-.65,.65"/><path class="n" d="M42.68,47.21v1.29c0,.36,.29,.65,.65,.65s.65-.29,.65-.65v-1.29c0-.36-.29-.65-.65-.65s-.65,.29-.65,.65"/><path class="n" d="M71.14,23.93v3.88c0,.36,.29,.65,.65,.65s.65-.29,.65-.65v-3.88c0-.36-.29-.65-.65-.65s-.65,.29-.65,.65"/><path class="x" d="M24.77,20.51l5.17,5.17c.25,.25,.66,.25,.91,0,.25-.25,.25-.66,0-.91l-5.17-5.17c-.25-.25-.66-.25-.91,0-.25,.25-.25,.66,0,.91"/><path class="x" d="M25.68,20.51l12.94-12.94c.25-.25,.25-.66,0-.91-.25-.25-.66-.25-.91,0l-12.94,12.93c-.25,.25-.25,.66,0,.91s.66,.25,.91,0"/><path class="x" d="M20.51,30.86c-2.27-2.02-3.69-4.95-3.69-8.22,0-3.04,1.23-5.78,3.22-7.77,1.99-1.99,4.74-3.22,7.77-3.22,.84,0,1.65,.09,2.44,.27,.35,.08,.69-.14,.77-.49,.08-.35-.14-.69-.49-.77-.88-.2-1.79-.3-2.72-.3-6.79,0-12.29,5.5-12.29,12.29,0,3.65,1.6,6.94,4.13,9.19,.27,.24,.68,.21,.91-.05,.24-.27,.21-.68-.05-.91"/><path class="x" d="M35.14,14.44c2.25,2.01,3.66,4.94,3.66,8.19,0,3.04-1.23,5.78-3.22,7.77-1.99,1.99-4.74,3.22-7.77,3.22-.84,0-1.66-.09-2.45-.27-.35-.08-.7,.14-.77,.49-.08,.35,.14,.69,.49,.77,.88,.2,1.79,.31,2.73,.31,6.79,0,12.29-5.5,12.29-12.29,0-3.64-1.58-6.91-4.1-9.16-.27-.24-.68-.22-.91,.05-.24,.27-.22,.68,.05,.91"/><path class="x" d="M29.94,24.77l-11.64,11.64c-.25,.25-.25,.66,0,.91,.25,.25,.66,.25,.91,0l11.64-11.64c.25-.25,.25-.66,0-.91-.25-.25-.66-.25-.91,0"/></g></g></g></g></svg>