<?xml version="1.0" encoding="UTF-8"?><svg xmlns="http://www.w3.org/2000/svg" xmlns:xlink="http://www.w3.org/1999/xlink" viewBox="0 0 224.98 236.18"><defs><style>.h{fill:url(#g);}.i{clip-path:url(#d);}.j{fill:url(#e);}.k{fill:none;}.l{clip-path:url(#f);}</style><clipPath id="d"><path class="k" d="M208.64,0c-3.15,.03-6.33,.98-9.11,2.92L66.15,96.33c-7.32,5.12-9.09,15.21-3.97,22.52,3.15,4.49,8.16,6.9,13.26,6.9,3.2,0,6.44-.95,9.26-2.93L218.08,29.42c7.32-5.12,9.09-15.21,3.97-22.52-3.12-4.45-8.07-6.85-13.12-6.9h-.29Z"/></clipPath><linearGradient id="e" x1="-1350.34" y1="4061.07" x2="-1349.28" y2="4061.07" gradientTransform="translate(210409.83 632678.84) scale(155.78 -155.78)" gradientUnits="userSpaceOnUse"><stop offset="0" stop-color="#b72376"/><stop offset="0" stop-color="#b72376"/><stop offset="1" stop-color="#5c0090"/><stop offset="1" stop-color="#5c0090"/></linearGradient><clipPath id="f"><path class="k" d="M140.28,113.36L6.9,206.77c-7.32,5.12-9.09,15.21-3.97,22.52,3.15,4.49,8.16,6.9,13.26,6.9,3.2,0,6.44-.95,9.26-2.93l133.38-93.41c7.32-5.12,9.09-15.21,3.97-22.52-3.15-4.49-8.17-6.9-13.26-6.9-3.2,0-6.44,.95-9.26,2.92"/></clipPath><linearGradient id="g" x1="-1350.37" y1="4061.03" x2="-1349.3" y2="4061.03" gradientTransform="translate(210354.15 632782.7) scale(155.78 -155.78)" xlink:href="#e"/></defs><g id="a"/><g id="b"><g id="c"><g><g class="i"><rect class="j" x="57.06" width="170.11" height="125.75"/></g><g class="l"><rect class="h" x="-2.2" y="110.43" width="170.11" height="125.75"/></g></g></g></g></svg>