<?xml version="1.0" encoding="utf-8"?>
<!-- Generator: Adobe Illustrator 26.2.1, SVG Export Plug-In . SVG Version: 6.00 Build 0)  -->
<svg version="1.1" id="Layer_1" xmlns="http://www.w3.org/2000/svg" xmlns:xlink="http://www.w3.org/1999/xlink" x="0px" y="0px"
	 viewBox="0 0 157.2 98.2" style="enable-background:new 0 0 157.2 98.2;" xml:space="preserve">
<style type="text/css">
	.st0{fill:#EE9215;}
</style>
<g id="a">
</g>
<g id="b">
	<g id="c">
		<g>
			<path d="M2.6,60.4C7.2,50.6,18,44.8,29,46c10.7,1.2,19.9,9.4,22.3,19.8c0.2,1,0.6,1.4,1.7,1.4c2.5-0.1,34,0,36.6,0l23.4-43
				c0,0-3.1-11.5-3.9-14.3c-0.1-0.3-0.9-0.5-1.4-0.5c-5,0-9.9,0-15,0V0h23.5l5.1,18.3h11.5v9.5h-8.9c0.5,1.8,0.9,3.5,1.4,5.1
				c0.1,0.3,0.9,0.6,1.3,0.6c3.3,0.1,6.6,0,9.8,0.1c7.4,0.4,14.2,2.7,20.6,6.9l-5.3,7.9c-7.1-5-15.1-6-23.5-5.3
				c0.1,1.7,1,2.6,2.7,2.6c15.2,0,27.3,13,26.2,28.1c-1,12.9-11.2,23-24.4,24.2c-12.3,1-24-7.6-27.1-19.9
				c-2.8-11.1,2.4-23.1,12.4-28.8c0.5-0.3,1-0.6,1.7-1c-0.6-2.1-1.2-4.2-1.8-6.3c-0.5-2-1.1-4.1-1.8-6.4c-0.5,0.7-0.7,1.2-1,1.7
				c-6.9,12.7-13.8,25.4-20.7,38.2c-0.5,1-1.1,1.3-2.3,1.3c-12.9,0-25.8,0-38.7,0c-1.3,0-1.8,0.2-2.1,1.6
				C48.5,90.2,37,98.8,24.9,98.2C12.1,97.6,1.7,88.1,0,75.7C0,75.4,0,63.7,2.6,60.4L2.6,60.4z M122.2,58c-6.9,4-9.8,13.3-6.5,20.8
				c3.5,7.8,12.3,11.8,20.3,9.1c8.3-2.7,13.1-11.1,11.2-19.5c-1.6-7.3-9.2-13.5-15.8-12.8l4.1,15.3l-9.2,2.5L122.2,58L122.2,58z
				 M41.8,67.3c-2.3-8-10.6-13.1-18.7-11.7c-8.3,1.4-14.2,9-13.8,17.7c0.4,8,7.6,15,15.6,15.4c7.8,0.4,15.6-5.2,16.8-12H21.3v-9.4
				H41.8z"/>
			<g>
				<path class="st0" d="M58.3,67.2c-1.1,0-2.2,0-3.3,0C55.9,67.2,57,67.2,58.3,67.2z"/>
				<path class="st0" d="M25.3,37c9.9,0,18.4,3.4,25.4,10.4c5.5,5.5,8.7,12,9.8,19.8c10.2,0,27.1,0,29,0l23.4-43
					c0,0-1.8-6.7-1.6-5.9c-0.8,0-1.4,0-2,0c-7.3,0-14.7-0.1-22,0c-5.5,0.1-9.5,2.8-12,7.7c-0.6,1.2-1.2,1.4-2.4,1.4
					c-18.1,0-36.3,0-54.4,0h-1.8V37C19.6,37,22.5,37,25.3,37z M81.3,49.3c3.2,0,6,2.7,6,5.9c0,3.2-2.7,5.9-6,5.9s-6-2.7-6-5.9
					C75.4,52,78,49.3,81.3,49.3L81.3,49.3z"/>
			</g>
		</g>
	</g>
</g>
</svg>
