<?xml version="1.0" encoding="UTF-8"?><svg xmlns="http://www.w3.org/2000/svg" viewBox="0 0 23.53 29.42"><defs><style>.d{fill:#ee9215;}.d,.e{fill-rule:evenodd;}</style></defs><g id="a"/><g id="b"><g id="c"><g><path class="d" d="M8.26,20.41l-.34-1.72s-.15-1-.77-1.38c-.61-.38-3.06-3.1-2.6-5.82,.46-2.72,.8-6.21,7.05-7.12,6.24-.92,8.66,7.12,7.39,9.12-1.26,1.99-2.37,3.6-2.72,4.41-.34,.8-.57,1.72-.65,2.26-.08,.54-.11,.92-.8,1-.69,.08-5.4-.08-5.4-.08,0,0-.92,.12-1.15-.65Z"/><path class="e" d="M11.48,29.42c-.51-.12-.99-.29-1.37-.66-.32-.31-.38-.58-.16-.81,.2-.22,.49-.19,.81,.08,.65,.56,1.47,.56,2.04-.02,.14-.14,.23-.32,.4-.54-.43,0-.78,0-1.12,0-.26,0-.52,.01-.78,0-.31-.02-.52-.24-.51-.51,.01-.27,.21-.46,.52-.46,.74,0,1.47,0,2.21,0,.11,0,.23,0,.34-.04,.23-.06,.35-.24,.34-.47-.01-.25-.15-.42-.4-.45-.17-.02-.34,0-.52-.02-.33-.02-.53-.22-.54-.49,0-.29,.21-.47,.56-.49,.18,0,.37,0,.54-.04,.25-.05,.37-.24,.35-.49-.01-.24-.15-.41-.41-.44-.17-.02-.34,0-.52-.02-.32-.03-.53-.22-.53-.5,0-.28,.21-.46,.54-.48,.04,0,.08,0,.12,0,.73-.01,.88-.18,.8-.96-.07,0-.16-.02-.24-.02-.24,0-.48,0-.72,0-.29-.02-.48-.21-.49-.46-.01-.26,.19-.48,.49-.5,.39-.02,.78-.01,1.18-.01,.67,0,.79-.12,.79-.79,0-.18,0-.36,0-.55-.06-.94,.3-1.69,1.02-2.29,.69-.57,1.24-1.25,1.63-2.05,1.18-2.4,1.04-4.75-.44-6.97-1.23-1.84-3.01-2.87-5.23-3.01-2.07-.14-3.86,.57-5.32,2.05-1.46,1.49-2.09,3.3-1.93,5.36,.13,1.69,.84,3.15,2.05,4.34,.03,.03,.05,.06,.08,.08,.97,.7,1.34,1.65,1.26,2.84-.06,.93,.04,.98,.95,.98,.75,0,1.49,0,2.24,0,.11,0,.23,0,.34,.03,.25,.06,.37,.23,.36,.48,0,.25-.15,.41-.4,.45-.13,.02-.27,.02-.4,.02-.7,0-1.39,0-2.13,0,0,.15,0,.27,0,.39,.02,.4,.19,.58,.58,.59,.34,.01,.69,0,1.03,0,.25,0,.5,0,.75,0,.36,.01,.56,.18,.57,.47,0,.3-.2,.5-.57,.5-.55,.01-1.09,0-1.64,0-.11,0-.21,0-.31,.02-.25,.04-.39,.21-.4,.46,0,.23,.11,.41,.34,.47,.16,.04,.32,.04,.48,.04,.51,0,1.02,0,1.52,0,.36,0,.56,.18,.57,.47,0,.3-.2,.5-.57,.51-.56,0-1.11,0-1.67,0-.1,0-.19,0-.29,.01-.24,.04-.37,.19-.39,.43-.02,.23,.09,.41,.31,.49,.07,.03,.15,.04,.22,.05,.3,.07,.45,.28,.41,.56-.04,.27-.26,.43-.56,.41-1.11-.06-1.75-1.31-1.14-2.25,.04-.06,.09-.12,.13-.18-.48-.86-.48-1.22,0-1.99-.34-.38-.39-.86-.38-1.36,0-.09-.08-.21-.16-.26-.54-.31-.81-.77-.82-1.39,0-.3-.01-.59,0-.89,.02-.55-.18-.99-.59-1.34-.62-.53-1.17-1.13-1.6-1.83-.96-1.52-1.37-3.18-1.18-4.96,.26-2.52,1.46-4.5,3.59-5.85,2.17-1.38,4.52-1.64,6.92-.71,2.62,1.01,4.28,2.94,4.92,5.68,.5,2.14,.1,4.15-1.13,5.97-.4,.6-.92,1.12-1.44,1.62-.43,.42-.7,.87-.66,1.49,.02,.29,.01,.57,0,.86-.02,.59-.28,1.05-.81,1.33-.15,.08-.18,.17-.17,.31,.02,.48-.04,.94-.37,1.31,.48,.86,.48,1.21,0,1.99,.26,.36,.43,.75,.34,1.22-.09,.5-.37,.85-.82,1.08-.09,.05-.19,.14-.22,.23-.28,1-.92,1.6-1.93,1.83-.04,0-.07,.03-.1,.05h-.63Z"/><path class="e" d="M11.94,0c.26,.17,.33,.42,.32,.71,0,.52,0,1.03,0,1.55,0,.13,0,.27-.06,.39-.09,.2-.26,.3-.49,.27-.25-.03-.41-.19-.42-.44-.01-.68-.02-1.36,0-2.04,0-.16,.19-.3,.29-.45h.34Z"/><path class="e" d="M16.49,4.19c-.41,0-.67-.36-.5-.68,.32-.62,.68-1.22,1.05-1.81,.14-.22,.38-.25,.61-.12,.23,.13,.32,.36,.2,.59-.33,.62-.69,1.23-1.06,1.83-.06,.1-.23,.15-.29,.18Z"/><path class="e" d="M1.94,5.59c.19,.08,.31,.11,.41,.17,.5,.28,1,.57,1.49,.86,.34,.2,.43,.47,.27,.73-.15,.25-.43,.3-.75,.12-.52-.3-1.04-.6-1.56-.9-.23-.14-.36-.36-.24-.6,.07-.16,.26-.26,.38-.38Z"/><path class="e" d="M7.59,3.66c0,.26-.11,.42-.33,.49-.25,.09-.44,0-.57-.21-.23-.36-.44-.74-.65-1.11-.11-.2-.24-.39-.34-.6-.12-.26-.04-.52,.17-.65,.22-.13,.5-.09,.65,.16,.35,.57,.67,1.15,1.01,1.73,.04,.06,.04,.14,.05,.18Z"/><path class="e" d="M19.89,7.59c-.27,0-.42-.1-.5-.32-.09-.24,0-.44,.2-.57,.27-.18,.56-.33,.84-.49,.27-.16,.54-.32,.82-.47,.3-.16,.58-.09,.72,.16,.13,.24,.04,.52-.23,.68-.53,.32-1.07,.62-1.61,.93-.08,.05-.18,.06-.23,.08Z"/><path class="e" d="M4.18,16.54c-.05,.06-.13,.23-.26,.31-.54,.34-1.1,.65-1.66,.96-.27,.15-.54,.07-.68-.16-.13-.23-.07-.52,.18-.67,.56-.34,1.12-.67,1.69-.97,.36-.19,.74,.05,.72,.53Z"/><path class="e" d="M1.45,12.25c-.31,0-.63,0-.94,0C.2,12.24,0,12.04,0,11.77c0-.25,.19-.48,.47-.49,.67-.02,1.34-.02,2,0,.3,0,.47,.24,.46,.52-.02,.26-.2,.43-.5,.45-.32,.01-.65,0-.97,0Z"/><path class="e" d="M22.08,12.25c-.32,0-.65,0-.97,0-.3-.01-.48-.18-.5-.44-.02-.28,.15-.51,.45-.52,.67-.02,1.34-.02,2,0,.28,0,.47,.24,.47,.49,0,.27-.2,.47-.51,.48-.31,.01-.63,0-.94,0Z"/></g></g></g></svg>