<?xml version="1.0" encoding="UTF-8"?><svg xmlns="http://www.w3.org/2000/svg" viewBox="0 0 54.41 54.29"><g id="a"/><g id="b"><g id="c"><g><path d="M29.65,46.3c.23,1.98,2.11,3.66,4.19,3.82,2.08,.16,2.71,.6,3.53,2.49h.65c5.03,0,10.05,0,15.08,0,.22,0,.46-.01,.67,.05,.43,.11,.67,.43,.63,.87-.04,.44-.3,.71-.76,.76-.17,.02-.34,0-.5,0-17.15,0-34.3,0-51.46,0-.9,0-1.26-.23-1.27-.81-.01-.6,.39-.87,1.29-.87,2.86,0,5.72,0,8.58,0,.42,0,.63-.08,.81-.52,.52-1.28,1.53-1.93,2.92-1.97,2.19-.07,3.98-1.43,4.53-3.44,.03-.1,.03-.22,.06-.39h-.69c-4.5,0-9.01,0-13.51,0-2.47,0-4.06-1.44-4.31-3.91-.04-.39-.07-.78-.07-1.17C0,32.35,0,23.5,0,14.64c0-2.74,1.53-4.84,4-5.47,.5-.13,1.03-.17,1.55-.18,2.6-.02,5.19,0,7.79,0,.2,0,.4,0,.6,0,.07-.52,.1-1.01,.21-1.47,.35-1.37,1.26-2.3,2.44-3,1.42-.85,2.97-1.29,4.59-1.52,3.02-.41,6-.3,8.9,.73,.18,.06,.35,.13,.52,.21,2.21,.95,3.8,2.38,3.77,5.03h2.59c-.09-5.5,4.06-8.6,7.67-8.93,4.06-.37,7.8,2.19,8.99,6.1,1.1,3.59-.46,8.58-5.43,10.44,0,.21,0,.44,0,.66,0,7.98,.01,15.95,0,23.93,0,.74-.07,1.5-.26,2.21-.51,1.87-1.95,2.92-3.89,2.92-4.58,0-9.16,0-13.73,0h-.65Zm-19.73-9.32c0-.38,0-.7,0-1.02,.07-3.89,2.67-7.13,6.48-7.94,1.01-.21,2.08-.14,3.12-.21,.15-.01,.36-.03,.44-.13,.34-.42,.02-1.92-.45-2.21-1.92-1.22-3.21-2.92-3.87-5.1-.06-.2-.28-.43-.49-.51-2.59-1.07-3.33-4.23-1.47-6.31,.11-.12,.29-.26,.29-.39,.03-.81,.01-1.62,.01-2.47h-.69c-2.54,0-5.08,0-7.62,0-2.48,0-3.99,1.49-3.99,3.96,0,7.25,0,14.5,0,21.74,0,.2,.02,.39,.03,.59H9.92Zm36.55-.02V16.99c-.79-.05-1.56-.03-2.31-.17-.75-.13-1.46-.43-2.2-.63-.15-.04-.33,0-.48,.05-.89,.28-1.77,.58-2.66,.87-.48,.16-.93,.11-1.29-.27-.35-.36-.38-.79-.22-1.25,.27-.79,.54-1.59,.79-2.39,.05-.15,.09-.34,.03-.48-.29-.68-.61-1.35-.92-2.03h-2.85c0,.8-.01,1.56,.01,2.32,0,.16,.14,.33,.25,.46,1.93,2.11,1.19,5.27-1.47,6.36-.18,.07-.37,.26-.43,.43-.67,2.27-2.01,4.01-4.02,5.26-.14,.09-.31,.26-.33,.4-.06,.48-.06,.97-.06,1.45,0,.3,.16,.42,.47,.41,.48-.02,.97,0,1.46,0,4.06,.08,7.48,3.15,7.97,7.18,.08,.66,.09,1.32,.14,2,2.66,0,5.27,0,7.89,0,.07,0,.14-.02,.23-.04ZM17.12,13.78c0,1.83-.18,3.64,.04,5.4,.44,3.5,3.85,6.15,7.36,5.93,3.73-.23,6.75-3.24,6.83-6.87,.04-1.96,.01-3.92,0-5.88,0-.14,0-.34-.09-.41-.85-.72-1.71-1.42-2.58-2.14-1.21,1.46-2.66,2.41-4.42,2.83-1.25,.3-2.52,.51-3.79,.71-1.14,.18-2.29,.29-3.36,.42Zm19.4,23.2c0-.47,.01-.88,0-1.29-.13-3.21-2.91-6-6.07-6.06-.21,0-.49,.13-.64,.29-1.55,1.64-3.07,3.31-4.62,4.96-.63,.67-1.38,.68-2.01,.01-1.56-1.66-3.09-3.34-4.65-5-.14-.15-.4-.27-.6-.26-2.3,.1-4.05,1.15-5.28,3.08-.84,1.31-1.05,2.76-.93,4.29h24.8Zm6.21-28.72c0,.58,0,1.16,0,1.73-.02,1.45,1.58,2.4,2.81,1.61,.92-.6,1.9-1.1,2.84-1.67,1.42-.85,1.44-2.44,.02-3.32-.93-.58-1.89-1.13-2.84-1.66-1.37-.77-2.78,.05-2.83,1.63-.02,.56,0,1.12,0,1.68ZM22.16,29.71l2.01,2.16,2.01-2.16-.81-2.4h-2.39l-.82,2.4Zm1.93,13.48c.9,0,1.59-.69,1.59-1.58,0-.87-.69-1.56-1.56-1.57-.88,0-1.61,.72-1.6,1.59,0,.85,.71,1.56,1.57,1.56Z"/><path d="M24.19,23.17c-.65-.29-1.28-.52-1.84-.85-.41-.24-.46-.77-.2-1.13,.29-.39,.71-.5,1.09-.24,.67,.45,1.25,.43,1.91,0,.38-.25,.8-.14,1.08,.26,.25,.36,.18,.9-.22,1.13-.55,.32-1.16,.54-1.82,.84Z"/><path d="M21.73,15.5c.01,.7-.52,1.24-1.22,1.25-.69,0-1.25-.55-1.25-1.23,0-.65,.54-1.21,1.2-1.23,.68-.02,1.25,.52,1.26,1.21Z"/><path d="M27.87,16.75c-.68,0-1.21-.51-1.23-1.19-.02-.7,.52-1.27,1.21-1.27,.66,0,1.22,.55,1.24,1.2,.02,.68-.54,1.25-1.23,1.26Z"/><path d="M25.04,17.66c-.01,.24,0,.49-.05,.72-.08,.44-.38,.69-.82,.68-.45,0-.75-.26-.8-.71-.04-.44-.05-.9,0-1.34,.04-.47,.35-.75,.83-.74,.47,0,.76,.29,.81,.76,.02,.2,0,.41,0,.61h.03Z"/></g></g></g></svg>