<?xml version="1.0" encoding="UTF-8"?><svg xmlns="http://www.w3.org/2000/svg" viewBox="0 0 110 110"><g id="a"/><g id="b"><g id="c"><path d="M0,107.21c.48-.57,.93-1.17,1.46-1.69,4.47-4.49,8.95-8.97,13.44-13.44,.28-.28,.6-.51,.53-.78-.57-1.47-1.35-2.89-1.66-4.42-.47-2.27,.32-4.32,1.93-5.99,1.19-1.23,2.46-2.39,3.73-3.62-1.32-2.09-1.96-4.26-1.9-6.6,.08-3.2,1.36-5.86,3.62-8.11,6.77-6.74,13.52-13.51,20.28-20.27,4.96-4.96,9.92-9.92,14.89-14.88,.28-.28,.61-.5,.91-.74-1.24-1.84-1.83-3.67-1.41-5.73,.55-2.69,2.13-4.52,4.71-5.36,2.59-.84,4.98-.29,6.96,1.59,2.1,2,4.11,4.09,6.17,6.13,.27,.27,.56,.54,.76,.72l9.7-9.7c-.6-.55-1.33-1.22-2.07-1.87-4.75-4.22-2.43-11.28,3.1-12.34,.06-.01,.12-.07,.18-.11h2.36c2.12,.55,3.66,1.95,5.15,3.46,4.52,4.58,9.07,9.13,13.65,13.65,1.54,1.52,2.98,3.06,3.54,5.23v2.36c-.07,.2-.16,.39-.22,.6-1.48,5.24-7.63,6.99-11.62,3.27-.91-.85-1.71-1.82-2.48-2.64-3.3,3.29-6.45,6.44-9.7,9.69,.12,.12,.37,.4,.64,.67,2.09,2.11,4.24,4.17,6.27,6.33,2.03,2.15,2.42,5.18,1.17,7.78-1.21,2.5-3.85,4.17-6.62,3.89-1.38-.14-2.71-.74-4.06-1.14l-.08-.38c-.29,.36-.55,.76-.88,1.08-11.53,11.55-23.07,23.09-34.61,34.62-4.46,4.46-9.35,5.19-15.17,2.1-.86,.93-1.74,1.95-2.69,2.9-3.57,3.59-7.04,3.85-11.12,.79-.26,.25-.55,.5-.82,.76-4.51,4.5-9.01,9.01-13.52,13.51-.53,.52-1.13,.97-1.69,1.45H0v-2.79ZM60.29,29.85c-10.14,10.15-20.32,20.33-30.48,30.49,.06,0,.26,.03,.46,.03,12.96,0,25.92,0,38.88-.02,.43,0,.96-.26,1.28-.57,3.14-3.09,6.24-6.21,9.35-9.33,.19-.19,.36-.42,.51-.59-6.73-6.73-13.41-13.41-20.01-20Zm30.19,16.98c-.26-.39-.64-1.2-1.24-1.8-8.08-8.12-16.19-16.22-24.29-24.32-.23-.23-.45-.46-.71-.65-1.52-1.11-3.6-.42-4.16,1.39-.39,1.27,.19,2.2,1.05,3.06,8.13,8.12,16.26,16.25,24.39,24.37,.25,.25,.51,.51,.81,.7,.88,.56,1.81,.63,2.74,.11,.92-.52,1.37-1.32,1.41-2.86Zm15.22-23.71c-.22-.35-.54-1.17-1.11-1.74-5.31-5.37-10.66-10.69-15.99-16.03-.18-.18-.35-.36-.56-.5-.93-.65-1.91-.76-2.92-.19-.96,.55-1.52,1.41-1.31,2.48,.14,.72,.53,1.5,1.04,2.02,5.3,5.37,10.65,10.7,15.99,16.03,.25,.25,.52,.5,.82,.68,1.75,1.04,3.99-.23,4.03-2.75Zm-23.01,9.11l9.45-9.41-4.9-4.87-9.39,9.4c1.56,1.57,3.22,3.24,4.85,4.87Zm-30.85,20.63c-.05-.24-.01-.57-.16-.72-.95-1-1.84-2.09-2.93-2.9-.79-.58-1.75-.2-2.39,.55-.65,.75-.8,1.68-.19,2.46,.7,.89,1.49,1.78,2.42,2.39,.51,.34,1.51,.35,2.08,.08,.59-.29,.93-1.1,1.39-1.68l-.21-.19Zm6.34-7.21c-.98-1.01-1.9-2.12-3.02-2.94-.74-.54-1.67-.14-2.29,.57-.66,.76-.78,1.7-.19,2.47,.71,.92,1.54,1.82,2.51,2.45,.5,.33,1.51,.27,2.07-.02,.57-.29,.87-1.09,1.18-1.5-.12-.55-.1-.87-.25-1.03Z"/></g></g></svg>