<?xml version="1.0" encoding="utf-8"?>
<!-- Generator: Adobe Illustrator 26.2.1, SVG Export Plug-In . SVG Version: 6.00 Build 0)  -->
<svg version="1.1" id="Layer_1" xmlns="http://www.w3.org/2000/svg" xmlns:xlink="http://www.w3.org/1999/xlink" x="0px" y="0px"
	 viewBox="0 0 98.3 122.9" style="enable-background:new 0 0 98.3 122.9;" xml:space="preserve">
<style type="text/css">
	.st0{fill-rule:evenodd;clip-rule:evenodd;fill:#EE9215;}
	.st1{fill-rule:evenodd;clip-rule:evenodd;}
</style>
<g id="a">
</g>
<g id="b">
	<g id="c">
		<g>
			<path class="st0" d="M34.5,85.3l-1.4-7.2c0,0-0.6-4.2-3.2-5.8C27.3,70.8,17.1,59.4,19,48s3.3-25.9,29.5-29.7
				C74.5,14.5,84.6,48,79.3,56.4c-5.3,8.3-9.9,15-11.4,18.4c-1.4,3.3-2.4,7.2-2.7,9.4s-0.5,3.8-3.3,4.2c-2.9,0.3-22.6-0.3-22.6-0.3
				S35.5,88.6,34.5,85.3L34.5,85.3z"/>
			<path class="st1" d="M48,122.9c-2.1-0.5-4.1-1.2-5.7-2.8c-1.3-1.3-1.6-2.4-0.7-3.4c0.8-0.9,2-0.8,3.4,0.3
				c2.7,2.3,6.1,2.3,8.5-0.1c0.6-0.6,1-1.3,1.7-2.3c-1.8,0-3.3,0-4.7,0c-1.1,0-2.2,0-3.3,0c-1.3-0.1-2.2-1-2.1-2.1
				c0-1.1,0.9-1.9,2.2-1.9c3.1,0,6.1,0,9.2,0c0.5,0,1,0,1.4-0.2c1-0.3,1.5-1,1.4-2c0-1-0.6-1.8-1.7-1.9c-0.7-0.1-1.4,0-2.2-0.1
				c-1.4-0.1-2.2-0.9-2.3-2c0-1.2,0.9-2,2.3-2c0.8,0,1.5,0,2.3-0.2c1-0.2,1.5-1,1.5-2c0-1-0.6-1.7-1.7-1.8c-0.7-0.1-1.4,0-2.2-0.1
				c-1.3-0.1-2.2-0.9-2.2-2.1c0-1.2,0.9-1.9,2.3-2c0.2,0,0.3,0,0.5,0c3,0,3.7-0.8,3.3-4c-0.3,0-0.7-0.1-1-0.1c-1,0-2,0-3,0
				c-1.2-0.1-2-0.9-2-1.9c0-1.1,0.8-2,2-2.1c1.6-0.1,3.3,0,4.9,0c2.8,0,3.3-0.5,3.3-3.3c0-0.8,0-1.5,0-2.3c-0.3-3.9,1.3-7.1,4.3-9.6
				c2.9-2.4,5.2-5.2,6.8-8.6c4.9-10,4.3-19.8-1.8-29.1c-5.1-7.7-12.6-12-21.8-12.6c-8.6-0.6-16.1,2.4-22.2,8.6
				c-6.1,6.2-8.7,13.8-8.1,22.4c0.5,7.1,3.5,13.2,8.6,18.1c0.1,0.1,0.2,0.3,0.3,0.3c4.1,2.9,5.6,6.9,5.3,11.9
				c-0.3,3.9,0.2,4.1,4,4.1c3.1,0,6.2,0,9.4,0c0.5,0,1,0,1.4,0.1c1,0.3,1.5,1,1.5,2c0,1-0.6,1.7-1.7,1.9c-0.5,0.1-1.1,0.1-1.7,0.1
				c-2.9,0-5.8,0-8.9,0c0,0.6,0,1.1,0,1.6c0.1,1.7,0.8,2.4,2.4,2.5c1.4,0,2.9,0,4.3,0c1,0,2.1,0,3.1,0c1.5,0,2.3,0.8,2.4,2
				c0,1.3-0.8,2.1-2.4,2.1c-2.3,0-4.6,0-6.9,0c-0.5,0-0.9,0-1.3,0.1c-1,0.2-1.6,0.9-1.7,1.9c0,1,0.5,1.7,1.4,2
				c0.7,0.2,1.3,0.2,2,0.2c2.1,0,4.3,0,6.4,0c1.5,0,2.3,0.8,2.4,2c0,1.3-0.8,2.1-2.4,2.1c-2.3,0-4.6,0-7,0c-0.4,0-0.8,0-1.2,0
				c-1,0.2-1.5,0.8-1.6,1.8c-0.1,1,0.4,1.7,1.3,2c0.3,0.1,0.6,0.2,0.9,0.2c1.3,0.3,1.9,1.2,1.7,2.3c-0.2,1.1-1.1,1.8-2.3,1.7
				c-4.6-0.3-7.3-5.5-4.8-9.4c0.2-0.3,0.4-0.5,0.5-0.8c-2-3.6-2-5.1,0-8.3c-1.4-1.6-1.6-3.6-1.6-5.7c0-0.4-0.3-0.9-0.7-1.1
				c-2.3-1.3-3.4-3.2-3.4-5.8c0-1.3,0-2.5,0-3.7c0.1-2.3-0.8-4.1-2.5-5.6c-2.6-2.2-4.9-4.7-6.7-7.6c-4-6.4-5.7-13.3-4.9-20.7
				c1.1-10.5,6.1-18.8,15-24.4c9.1-5.8,18.9-6.9,28.9-3c10.9,4.2,17.9,12.3,20.6,23.7c2.1,8.9,0.4,17.3-4.7,24.9
				c-1.7,2.5-3.8,4.7-6,6.8c-1.8,1.8-2.9,3.6-2.8,6.2c0.1,1.2,0,2.4,0,3.6c-0.1,2.5-1.2,4.4-3.4,5.6c-0.6,0.3-0.8,0.7-0.7,1.3
				c0.1,2-0.2,3.9-1.5,5.5c2,3.6,2,5.1,0,8.3c1.1,1.5,1.8,3.1,1.4,5.1c-0.4,2.1-1.5,3.6-3.4,4.5c-0.4,0.2-0.8,0.6-0.9,1
				c-1.2,4.2-3.8,6.7-8.1,7.6c-0.2,0-0.3,0.1-0.4,0.2h-2.6L48,122.9z"/>
			<path class="st1" d="M49.9,0c1.1,0.7,1.4,1.8,1.3,3c0,2.2,0,4.3,0,6.5c0,0.5,0,1.1-0.3,1.6c-0.4,0.8-1.1,1.3-2,1.1
				c-1-0.1-1.7-0.8-1.8-1.8c0-2.8-0.1-5.7,0-8.5c0-0.7,0.8-1.3,1.2-1.9L49.9,0L49.9,0z"/>
			<path class="st1" d="M68.9,17.5c-1.7,0-2.8-1.5-2.1-2.8c1.3-2.6,2.8-5.1,4.4-7.6c0.6-0.9,1.6-1,2.5-0.5c1,0.5,1.3,1.5,0.8,2.5
				c-1.4,2.6-2.9,5.1-4.4,7.6C69.9,17.2,69.2,17.4,68.9,17.5L68.9,17.5z"/>
			<path class="st1" d="M8.1,23.4c0.8,0.3,1.3,0.5,1.7,0.7c2.1,1.2,4.2,2.4,6.2,3.6c1.4,0.8,1.8,2,1.1,3c-0.6,1-1.8,1.3-3.1,0.5
				c-2.2-1.3-4.3-2.5-6.5-3.8c-1-0.6-1.5-1.5-1-2.5C6.8,24.3,7.6,23.9,8.1,23.4z"/>
			<path class="st1" d="M31.7,15.3c0,1.1-0.5,1.8-1.4,2c-1,0.4-1.8,0-2.4-0.9c-1-1.5-1.8-3.1-2.7-4.6c-0.5-0.8-1-1.6-1.4-2.5
				c-0.5-1.1-0.2-2.2,0.7-2.7c0.9-0.5,2.1-0.4,2.7,0.7c1.5,2.4,2.8,4.8,4.2,7.2C31.6,14.8,31.6,15.1,31.7,15.3L31.7,15.3z"/>
			<path class="st1" d="M83.1,31.8c-1.1,0-1.8-0.4-2.1-1.3c-0.4-1,0-1.8,0.8-2.4c1.1-0.8,2.3-1.4,3.5-2c1.1-0.7,2.3-1.3,3.4-2
				c1.3-0.7,2.4-0.4,3,0.7c0.5,1,0.2,2.2-1,2.8c-2.2,1.3-4.5,2.6-6.7,3.9C83.8,31.6,83.3,31.7,83.1,31.8L83.1,31.8z"/>
			<path class="st1" d="M17.5,69.1c-0.2,0.3-0.5,1-1.1,1.3c-2.3,1.4-4.6,2.7-6.9,4c-1.1,0.6-2.3,0.3-2.8-0.7c-0.5-1-0.3-2.2,0.8-2.8
				c2.3-1.4,4.7-2.8,7.1-4.1C15.9,66.1,17.5,67.1,17.5,69.1L17.5,69.1z"/>
			<path class="st1" d="M6.1,51.2c-1.3,0-2.6,0-3.9,0c-1.3,0-2.1-0.9-2.1-2c0-1,0.8-2,2-2c2.8-0.1,5.6-0.1,8.4,0c1.3,0,2,1,1.9,2.2
				c-0.1,1.1-0.8,1.8-2.1,1.9C8.8,51.3,7.4,51.2,6.1,51.2L6.1,51.2z"/>
			<path class="st1" d="M92.2,51.2c-1.3,0-2.7,0-4.1,0c-1.3,0-2-0.8-2.1-1.8c-0.1-1.2,0.6-2.1,1.9-2.2c2.8-0.1,5.6-0.1,8.4,0
				c1.2,0,2,1,2,2c0,1.1-0.8,2-2.1,2C94.9,51.3,93.5,51.3,92.2,51.2L92.2,51.2z"/>
		</g>
	</g>
</g>
</svg>
