<?xml version="1.0" encoding="UTF-8"?><svg xmlns="http://www.w3.org/2000/svg" viewBox="0 0 34.84 21.79"><defs><style>.d{fill:#ee9215;}</style></defs><g id="a"/><g id="b"><g id="c"><g><path d="M.57,13.39c1.03-2.18,3.43-3.45,5.87-3.18,2.37,.27,4.41,2.08,4.94,4.4,.05,.23,.13,.32,.37,.31,.55-.02,7.53,0,8.11,0l5.18-9.54s-.68-2.56-.86-3.16c-.02-.07-.2-.12-.3-.12-1.1,0-2.2,0-3.33,0V0h5.22l1.12,4.06h2.56v2.1h-1.98c.11,.41,.19,.78,.31,1.14,.03,.07,.19,.14,.29,.14,.73,.02,1.46-.01,2.18,.03,1.64,.08,3.15,.6,4.56,1.53l-1.17,1.75c-1.58-1.1-3.35-1.32-5.2-1.17q.03,.58,.59,.58c3.38,0,6.06,2.88,5.8,6.24-.22,2.87-2.48,5.11-5.42,5.36-2.73,.23-5.33-1.68-6.01-4.42-.61-2.46,.53-5.12,2.74-6.39,.12-.07,.23-.13,.38-.22-.13-.47-.26-.94-.39-1.4-.12-.45-.25-.91-.39-1.43-.1,.16-.16,.26-.22,.37-1.53,2.82-3.07,5.64-4.59,8.46-.12,.22-.25,.29-.5,.29-2.86,0-5.73,0-8.59-.01-.28,0-.4,.05-.47,.36-.62,2.64-3.16,4.54-5.85,4.4C2.69,21.64,.37,19.54,0,16.79c0-.06,0-2.66,.57-3.41Zm26.52-.53c-1.54,.89-2.17,2.96-1.44,4.61,.77,1.72,2.73,2.61,4.5,2.02,1.83-.6,2.9-2.47,2.49-4.33-.36-1.62-2.05-3-3.51-2.84l.92,3.4-2.03,.56-.94-3.42Zm-17.83,2.06c-.51-1.78-2.35-2.91-4.15-2.59-1.85,.32-3.15,2-3.05,3.93,.09,1.77,1.68,3.33,3.47,3.41,1.72,.08,3.47-1.16,3.72-2.66H4.72v-2.09h4.54Z"/><g><path class="d" d="M12.93,14.91c-.25,0-.49,0-.73,0,.2,0,.44,0,.73,0Z"/><path class="d" d="M5.62,8.21c2.2-.01,4.08,.76,5.64,2.31,1.21,1.21,1.92,2.67,2.18,4.39,2.26,0,6,0,6.42,0l5.18-9.54s-.4-1.48-.35-1.31c-.18,0-.31,0-.45,0-1.62,0-3.25-.03-4.87,.01-1.21,.03-2.11,.63-2.66,1.71-.13,.26-.27,.32-.54,.32-4.02,0-8.04,0-12.07,0h-.4v2.11c.65,0,1.29,0,1.92,0Zm12.41,2.72c.72,0,1.33,.59,1.33,1.31,0,.72-.59,1.31-1.32,1.31-.73,0-1.33-.59-1.33-1.31,0-.72,.59-1.31,1.32-1.32Z"/></g></g></g></g></svg>