<?xml version="1.0" encoding="UTF-8"?><svg xmlns="http://www.w3.org/2000/svg" viewBox="0 0 119.25 103.64"><g id="a"/><g id="b"><g id="c"><g><path d="M119.25,53.45c-.63,1.79-1.64,3.24-3.54,3.86-2.1,.68-4.29-.05-5.76-1.98-1.29-1.7-2.53-3.44-3.79-5.16-.22-.3-.47-.59-.79-.98,.21,7.25,1.42,14.19,3.18,21.16,.91-.3,1.77-.62,2.65-.87,2.76-.8,5.58,.59,6.54,3.2,.99,2.67-.13,5.6-2.76,6.72-2.24,.96-4.54,1.81-6.88,2.48-3.9,1.11-8.02-1.11-9.08-5.03-1.04-3.81-1.74-7.71-2.58-11.57-.09-.42-.19-.83-.29-1.3h-1.71c-.11,1.06-.23,2.13-.32,3.2-.19,2.13-.5,4.25-.5,6.38,0,1.59,.17,3.26,.69,4.75,1.15,3.29,2.66,6.45,3.86,9.72,1.48,4.03-1.87,7.94-6.02,7.13-1.74-.34-3.1-1.33-3.79-2.96-1.63-3.85-3.22-7.72-4.69-11.64-1.17-3.12-.99-6.39-.67-9.66,.43-4.32,.93-8.65,1.11-12.98,.11-2.58-.31-5.18-.53-7.77-.26-3.01-.52-6.03-.87-9.03-.06-.52-.42-1.16-.84-1.46-4.38-3.07-8.83-6.05-13.2-9.14-1.42-1-2.72-2.19-3.98-3.4-2.26-2.16-2.37-5.29-.36-7.37,2.01-2.08,4.98-1.91,7.43-.01,4.35,3.36,8.86,6.52,13.33,9.72,.33,.24,.88,.25,1.32,.26,4.54,.02,9.08,.04,13.62,0,2.01-.02,3.59,.67,4.83,2.29,3.87,5.05,7.81,10.05,11.67,15.11,1.02,1.34,1.84,2.84,2.75,4.26v2.1Z"/><path d="M24.3,67.69h-1.72c-.45,2.08-.91,4.18-1.35,6.29-1.74,8.27-3.52,16.53-5.18,24.81-1,5.02-6.13,6.02-8.93,3.53-1.71-1.52-2.1-3.44-1.64-5.61,2.32-11,4.7-21.98,6.89-33.01,.63-3.18,.69-6.46,.77-9.81-.59,.78-1.18,1.56-1.76,2.34-.65,.87-1.28,1.76-1.93,2.63-1.92,2.55-5.02,3.15-7.35,1.43-2.39-1.77-2.8-4.83-.87-7.42,3.49-4.66,7.05-9.27,10.58-13.89,.75-.99,1.62-1.9,2.31-2.92,1.34-1.97,3.23-2.65,5.51-2.64,4.08,.02,8.15-.02,12.23,.03,1.02,.01,1.85-.23,2.68-.83,3.8-2.75,7.69-5.39,11.42-8.22,1.85-1.4,3.41-3.17,5.15-4.72,1.52-1.36,3.31-1.66,5.21-.94,1.86,.71,2.92,2.14,3.19,4.1,.22,1.59-.22,3.08-1.41,4.14-3.39,3.01-6.73,6.1-10.31,8.86-3.47,2.67-7.21,4.98-10.86,7.42-.61,.41-.89,.86-.95,1.58-.46,5.37-1.12,10.73-1.39,16.12-.14,2.76,.31,5.57,.66,8.34,1.02,8.08,.97,16.18,.51,24.29-.11,1.82-.06,3.66-.31,5.46-.38,2.85-2.8,4.77-5.52,4.58-2.92-.2-5.06-2.38-5.04-5.35,.03-3.61,.1-7.22,.36-10.82,.41-5.69-.14-11.32-.67-16.96-.09-.92-.18-1.84-.27-2.8Z"/><path d="M91.71,27.64c-6.56-.02-12.02-5.48-12.01-12.01,0-6.57,5.56-12.07,12.13-12.03,6.53,.04,12.01,5.59,11.94,12.09-.07,6.6-5.48,11.97-12.06,11.95Z"/><path d="M39.01,19.37c-.02,6.59-5.43,11.99-12.01,11.99-6.61,0-12.11-5.51-12.05-12.09,.05-6.55,5.53-11.96,12.09-11.95,6.55,.02,12,5.49,11.98,12.04Z"/><path d="M56.77,5.68c.83,.52,1.57,.83,2.09,1.34,2.1,2.09,3.06,4.79,3.76,7.58,.24,.95-.28,1.66-1.19,1.99-.85,.3-1.73-.18-2.11-1.15-.42-1.08-.67-2.24-1.22-3.24-.62-1.12-1.43-2.16-2.28-3.13-.55-.62-.9-1.28-.54-1.97,.28-.54,.92-.9,1.48-1.42Z"/><path d="M66.07,10.7c-1.05,0-1.95-.99-1.68-2.05,.68-2.64,1.57-5.21,3.47-7.27,.44-.47,.98-.9,1.56-1.18,.81-.4,1.61-.22,2.15,.57,.5,.73,.5,1.61-.19,2.11-2.07,1.52-2.7,3.8-3.47,6.03-.43,1.25-.97,1.79-1.85,1.79Z"/></g></g></g></svg>