<?xml version="1.0" encoding="UTF-8"?><svg xmlns="http://www.w3.org/2000/svg" viewBox="0 0 67.36 67.38"><g id="a"/><g id="b"><g id="c"><g><path d="M62.67,25.57c.23-.3,.43-.63,.7-.88,.96-.85,2.36-.8,3.26,.1,.9,.89,1,2.33,.11,3.26-1.65,1.72-3.33,3.4-5.05,5.05-.93,.89-2.31,.82-3.26-.1-1.61-1.58-3.21-3.17-4.78-4.78-.99-1.01-.98-2.48-.02-3.43,.94-.93,2.35-.92,3.38,.01,.14,.13,.29,.27,.43,.4l.21-.07c-.3-1.34-.51-2.71-.91-4.02-3.06-10.09-12.47-16.72-23-16.25-11.23,.5-20.57,9.43-21.6,20.67-.06,.7-.09,1.4-.12,2.1-.06,1.45-1.11,2.5-2.48,2.46-1.33-.04-2.37-1.12-2.32-2.54,.42-11.48,5.7-20.02,16.06-24.91,16.04-7.58,34.62,1.75,38.57,19.08,.28,1.21,.42,2.45,.63,3.68l.19,.16Z"/><path d="M14.73,57.78c-1.47,0-2.26-.76-2.76-2.05-1.2-3.13-2.49-6.22-3.71-9.34-.19-.49-.42-.69-.97-.67-1.58,.04-3.15,.02-4.73,.01C1.09,45.73,.02,44.72,0,43.36c-.02-1.4,1.06-2.43,2.58-2.43,2.25,0,4.51,.01,6.76,0,1.28-.01,2.18,.53,2.59,1.75,.19,.55,.48,.68,1.04,.68,5.96-.02,11.92-.01,17.88-.01,2.14,0,3.18,1.3,2.66,3.37-.71,2.86-1.43,5.73-2.15,8.59-.46,1.81-.94,2.26-2.74,2.53,2.08,1.02,2.97,2.5,2.57,4.28-.38,1.68-1.8,2.85-3.48,2.87-1.69,.02-3.14-1.12-3.55-2.79-.44-1.81,.4-3.27,2.58-4.39h-10.31c1.14,.43,1.94,.99,2.41,1.93,.47,.94,.54,1.91,.17,2.91-.56,1.51-2.05,2.46-3.65,2.34-1.61-.12-2.94-1.32-3.27-2.95-.35-1.74,.51-3.13,2.65-4.24Z"/><path d="M57.71,41.35c-.03-1.19,.36-2.14,1.49-2.64,1.48-.65,3.2,.36,3.31,1.98,.04,.55,.26,.75,.7,.97,2.6,1.29,4,3.41,4.13,6.32,.06,1.41-.96,2.51-2.29,2.56-1.34,.05-2.4-.95-2.5-2.36-.11-1.48-1.14-2.49-2.5-2.44-1.27,.05-2.31,1.14-2.31,2.41,0,1.36,1.05,2.34,2.55,2.4,3.42,.13,6.28,2.5,6.92,5.72,.67,3.38-.95,6.53-4.1,8.05-.23,.11-.5,.41-.53,.65-.17,1.46-1.15,2.43-2.48,2.4-1.33-.03-2.27-1.05-2.35-2.52,0-.1-.02-.2-.15-.16-.94-.72-1.97-1.36-2.81-2.19-1.23-1.23-1.8-2.81-1.84-4.55-.04-1.43,.93-2.52,2.26-2.59,1.37-.07,2.45,.94,2.54,2.4,.06,.99,.5,1.72,1.38,2.16,.83,.41,1.66,.32,2.42-.21,.84-.59,1.2-1.62,.92-2.58-.31-1.06-1.17-1.73-2.34-1.77-2.59-.09-4.64-1.18-6.04-3.35-2.4-3.71-.9-8.59,3.16-10.43,.16-.07,.32-.14,.49-.22Z"/></g></g></g></svg>