<?xml version="1.0" encoding="UTF-8"?><svg xmlns="http://www.w3.org/2000/svg" viewBox="0 0 20.37 20.37"><defs><style>.d{fill:#9e9e9e;}</style></defs><g id="a"/><g id="b"><g id="c"><path class="d" d="M15.54,3.75c-.66,0-1.2,.54-1.2,1.2s.54,1.2,1.2,1.2,1.2-.54,1.2-1.2-.54-1.2-1.2-1.2Zm-5.32,1.54c-2.77,0-5.03,2.26-5.03,5.03s2.26,5.03,5.03,5.03,5.03-2.26,5.03-5.03-2.26-5.03-5.03-5.03Zm0,8.25c-1.78,0-3.22-1.45-3.22-3.22s1.45-3.22,3.22-3.22,3.22,1.45,3.22,3.22-1.45,3.22-3.22,3.22Zm10.15-7.4c0-3.39-2.75-6.14-6.14-6.14H6.14C2.75,0,0,2.75,0,6.14V14.23c0,3.39,2.75,6.14,6.14,6.14H14.23c3.39,0,6.14-2.75,6.14-6.14V6.14Zm-1.92,8.1c0,2.33-1.89,4.21-4.21,4.21H6.14c-2.33,0-4.21-1.89-4.21-4.21V6.14C1.92,3.81,3.81,1.92,6.14,1.92H14.23c2.33,0,4.21,1.89,4.21,4.21V14.23Z"/></g></g></svg>