<?xml version="1.0" encoding="UTF-8"?><svg xmlns="http://www.w3.org/2000/svg" viewBox="0 0 102.89 67.05"><defs><style>.d{fill:#fff;}</style></defs><g id="a"/><g id="b"><g id="c"><path class="d" d="M74.3,16.1c0,3.17-4.67,5.79-10.64,5.79s-10.57-2.62-10.57-5.79,4.66-5.78,10.57-5.78,10.64,2.61,10.64,5.78m26.95,15.38c-.91,0-1.64,.7-1.64,1.57s.73,1.58,1.64,1.58,1.64-.69,1.64-1.58-.71-1.57-1.63-1.57h-.01Zm0,.31c.71,0,1.23,.57,1.23,1.26s-.51,1.27-1.22,1.26c-.72,0-1.24-.55-1.24-1.26s.53-1.26,1.22-1.26h.01Zm-.25,1.45h.17c.21,0,.3,.08,.33,.25,.05,.18,.08,.32,.13,.37h.4s-.07-.14-.12-.38c-.05-.21-.14-.33-.29-.38v-.02c.19-.06,.33-.19,.33-.37,0-.14-.07-.27-.15-.34-.12-.08-.25-.12-.56-.12-.26,0-.46,.03-.61,.06v1.56h.37v-.62Zm.01-.71s.11-.02,.2-.02c.23,0,.34,.1,.34,.24,0,.16-.16,.23-.37,.23h-.17v-.45Zm-11.2,2.29c1.46,0,2.74,.56,3.61,1.6,.88,1.05,1.22,2.44,.95,3.94-.53,3.02-3.42,5.47-6.45,5.47-1.45,0-2.73-.56-3.6-1.59-.88-1.05-1.22-2.45-.96-3.94,.53-3.02,3.41-5.47,6.44-5.47m-2.54,14.4c4.93,0,9.63-4,10.5-8.93,.43-2.39-.12-4.64-1.53-6.31-1.38-1.64-3.43-2.55-5.77-2.55-4.93,0-9.64,4-10.51,8.93-.43,2.4,.12,4.64,1.53,6.32,1.38,1.64,3.43,2.54,5.77,2.54M9.99,34.83c1.46,0,2.74,.56,3.6,1.6,.89,1.05,1.23,2.44,.96,3.94-.53,3.02-3.42,5.47-6.45,5.47-1.47,0-2.74-.56-3.61-1.59-.87-1.05-1.22-2.45-.96-3.94,.54-3.02,3.43-5.47,6.46-5.47m-2.54,14.4c1.82,0,3.67-.55,5.36-1.58l.3-.19-.07,.35-.22,1.36h3.58l.6-3.51,.95-5.35c.42-2.39-.12-4.64-1.54-6.32-1.38-1.64-3.42-2.55-5.77-2.55-4.92,0-9.63,4-10.5,8.93-.42,2.4,.12,4.64,1.53,6.32,1.38,1.65,3.43,2.54,5.77,2.54m18.2-.06c4.89,0,7.81-2.49,8.67-7.39l1.84-10.36-3.83,.82-1.64,9.3c-.46,2.58-1.07,4.57-4.44,4.57-1.26,0-2.1-.28-2.58-.86-.66-.78-.61-2.02-.29-3.77l1.78-10.06-3.83,.82-1.69,9.6c-.43,2.46-.13,4.32,.89,5.54,1.01,1.19,2.73,1.8,5.13,1.8m15.29-.01c1.38,0,2.74-.29,4.05-.87l.56-.28,.23-1.35,.17-.95,.19-1.04-.55,.28c-1.32,.67-2.53,1-3.61,1-.71,0-1.24-.2-1.56-.59-.4-.48-.51-1.24-.32-2.31l1.44-8.19,.02-.13h5.45l.13-.79,.2-1.08,.24-1.38h-5.44l.03-.19,.73-4.15-3.72,.81-2.53,14.34c-.27,1.56-.39,2.64-.35,3.19,.05,.56,.15,1.02,.31,1.36,.16,.35,.37,.65,.65,.93,.88,.92,2.13,1.38,3.69,1.38m15.65-14.88c1.22,0,2.1,.36,2.68,1.09,.54,.68,.77,1.62,.68,2.83v.15h-8.49l.08-.22c.46-1.19,1.11-2.13,1.91-2.78,.89-.71,1.94-1.07,3.13-1.07m-2.16,14.86c1.56,0,2.74-.14,3.72-.46,1.9-.6,3.21-1.37,3.5-1.55l.6-3.5c-.06,.03-.11,.07-.12,.08-2.12,1.38-4.32,2.07-6.52,2.07-1.58,0-2.8-.48-3.65-1.45-.78-.9-1.1-2.13-.97-3.62v-.15h12.12l.08-.54c.48-2.69,.16-4.87-.91-6.46-1.08-1.61-2.79-2.42-5.08-2.42-2.4,0-4.52,.84-6.31,2.51-1.79,1.65-2.93,3.83-3.4,6.46-.31,1.75-.23,3.32,.23,4.65,.48,1.33,1.24,2.39,2.28,3.19,1.04,.78,2.53,1.19,4.43,1.19m17.6,.02c1.61,0,3.34-.31,5.15-.93l.16-.05,.11-.66,.42-2.31,.1-.58-.36,.14c-1.7,.69-3.2,1.04-4.43,1.04-1.78,0-3.13-.52-4.01-1.54-.86-1.02-1.14-2.42-.84-4.15,.29-1.62,1.01-2.99,2.16-4.04,1.14-1.06,2.49-1.59,3.99-1.59,1.35,0,2.75,.49,4.19,1.45,.09,.06,.18,.13,.27,.19l.13,.09,.15-.86,.41-2.25,.14-.77-.43-.18c-.78-.36-1.48-.62-2.07-.76-.67-.18-1.46-.26-2.35-.26-2.56,0-4.81,.85-6.68,2.53-1.87,1.67-3.06,3.9-3.54,6.62-.48,2.69-.05,4.87,1.27,6.46,1.33,1.59,3.37,2.4,6.08,2.4m-.86-25.44h21.07l-12.78-7c-.39,3.02-3.6,5.63-8.29,7m-23.28-7.14h.01c-.02-.15-.02-.31-.02-.47,0-4.53,6.42-8.32,14.74-8.6L48.91,0,5.56,23.71H55.72s-7.43-2.48-7.83-7.14m39.89,39.34l.34-1.72-1.78,.35-1.11,5.68c-.12,.61-.18,1.04-.16,1.27,.03,.22,.07,.41,.14,.56,.07,.14,.17,.27,.3,.38,.4,.37,.96,.56,1.67,.56,.62,0,1.22-.12,1.81-.36h0l.28-.12,.1-.56,.07-.37,.11-.53-.36,.16h0c-.57,.26-1.09,.39-1.55,.39-.64,0-.9-.33-.76-1.07l.63-3.22h2.39l.07-.36,.08-.42,.12-.62h-2.39Zm-5.7,7.08h1.74l1.25-7.18h-1.79l-1.19,7.18Zm3.26-8.59c.07-.49-.29-.89-.81-.89s-1,.4-1.08,.89c-.07,.49,.29,.89,.81,.89s1-.4,1.08-.89m-9.03,8.59h1.73l1.25-7.18h-1.79l-1.19,7.18Zm3.26-8.59c.07-.49-.29-.89-.81-.89s-1,.4-1.08,.89c-.07,.49,.29,.89,.81,.89s1-.4,1.08-.89m-6.57,.78c2.18,0,3.63,1.76,3.25,3.94-.39,2.18-2.46,3.95-4.64,3.95-.87,0-1.62-.28-2.19-.76l-.12,.69h-1.68l1.61-9.34,1.77-.38-.47,2.66c.74-.48,1.59-.76,2.47-.76m1.63,3.94c.23-1.29-.63-2.33-1.92-2.33s-2.46,1-2.72,2.25l-.03,.17c-.17,1.25,.67,2.24,1.93,2.24s2.51-1.04,2.74-2.33m-10.42-3.38c-2.24,0-4.37,1.63-4.77,3.63-.4,2.01,1.1,3.63,3.34,3.63s4.37-1.63,4.77-3.63c.39-2-1.1-3.63-3.34-3.63m-1.14,5.77c-1.32,0-2.2-.96-1.97-2.14,.23-1.18,1.49-2.14,2.82-2.14s2.2,.96,1.97,2.14c-.23,1.19-1.49,2.14-2.82,2.14m16.18,1.47h1.68l1.69-9.68-1.76,.38-1.61,9.3Zm-22.9-7.24c-1.06-.02-1.86,.25-2.44,.72-.4-.44-1.07-.7-2.08-.72-2.3-.04-3.34,1.26-3.68,3.03l-.84,4.21h1.72l.75-4.06c.21-1.08,.49-1.82,1.79-1.79,1.12,.02,1.27,.57,1.16,1.41-.02,.08-.03,.15-.05,.23l-.84,4.21h1.72l.77-4.11c.02-.1,.04-.2,.05-.31,.21-.88,.56-1.46,1.72-1.44,1.3,.02,1.3,.76,1.09,1.84l-.82,4.01h1.72l.77-4.11c.34-1.78-.19-3.1-2.49-3.14m41.56,.14h-2.08l-2.23,4.41-.7-4.41h-1.9l1.21,6.93h.02l-2.13,4.22h1.8l3.62-6.78h0l2.39-4.37Z"/></g></g></svg>