<?xml version="1.0" encoding="UTF-8"?><svg xmlns="http://www.w3.org/2000/svg" viewBox="0 0 64.7 63.69"><defs><style>.d{fill:#979797;}.e{fill:#fff;}.f{fill:#c5c5c5;}.g{fill:silver;}.h{fill:#5c5c5c;}.i{fill:#a9a9a9;}.j{fill:#9f9f9f;}.k{fill:#4a4a4a;}.l{fill:#8d8d8d;}.m{fill:#6b6b6b;}.n{fill:#cfcfcf;}.o{fill:#bdbdbd;}.p{fill:gray;}.q{fill:#b8b8b8;}.r{fill:#737373;}.s{fill:#ababab;}.t{fill:#b3b3b3;}.u{fill:#888;}.v{fill:#f5cd00;}</style></defs><g id="a"/><g id="b"><g id="c"><g><rect class="u" x="39.93" y="54.09" width="6.07" height="3.03"/><g><path class="u" d="M57.12,61.16c-2.79,0-5.05-2.26-5.05-5.05s2.26-5.06,5.05-5.06,5.05,2.26,5.05,5.06-2.26,5.05-5.05,5.05m0-12.13c-3.91,0-7.08,3.17-7.08,7.08s3.17,7.08,7.08,7.08,7.08-3.17,7.08-7.08-3.17-7.08-7.08-7.08"/><path class="f" d="M57.5,51.07h0c.36,.04,.7,.12,1.04,.21v-.03c-.33-.1-.68-.16-1.04-.19m-1.95,.23c-.34,.11-.66,.26-.97,.43v.02c.31-.18,.63-.33,.97-.44h0Z"/><path class="r" d="M57.25,49.03l.25,2.03c.36,.03,.7,.09,1.04,.19l-.23-1.86-.03-.26h0c-.33-.05-.68-.09-1.03-.1m-1.94,.23c-.34,.09-.66,.2-.98,.34l.06,.51h0l.19,1.63c.3-.18,.63-.32,.97-.43l-.24-2.04Z"/></g><rect class="u" x="52.06" y="37.91" width="3.18" height="4.63"/><polygon class="r" points="53.99 37.91 52.97 37.91 53.44 41.88 54.43 41.67 54.53 42.54 54.53 42.54 53.99 37.91"/><path class="v" d="M53.47,43.94c-.09,.02-7.92,1.69-9.34,10.15-.06,.32-.1,.66-.14,1.01h-.02c0,.56-.45,1.01-1,1.01s-1.01-.45-1.01-1.01c.03-.34,.07-.68,.12-1.01,1.51-10.23,11-12.13,11-12.13l1.36-.28,.23,2.01-1.19,.25Z"/><polygon class="f" points="53.67 43.89 53.67 43.9 54.66 43.68 53.67 43.89"/><g><path class="i" d="M54.43,41.67l.02,.21-.37,.08s-.23,.05-.62,.16l.21,1.78,.99-.21-.23-2.01Z"/><path class="o" d="M54.43,41.67h0l-.99,.21,.03,.24c.39-.12,.62-.16,.62-.16l.37-.08-.02-.21Z"/><path class="t" d="M57.12,49.03c2.06,0,3.91,.89,5.21,2.3l1.23-1.65c-1.65-1.65-3.92-2.66-6.43-2.66-5.03,0-9.1,4.07-9.1,9.1h2.02c0-3.91,3.17-7.08,7.08-7.08"/><path class="f" d="M57.12,47.01h0m-.09,0h0m.23,2.02h0m.05,0h0m.05,0h0"/><path class="r" d="M57.25,49.03h0c.19,0,.37,.02,.55,.04,.16,.02,.32,.04,.47,.06h0c-.3-.05-.6-.08-.91-.09h0s-.03,0-.04,0h-.07"/><path class="h" d="M57.25,49.03h0c.35,0,.69,.05,1.03,.1h0c-.18-.03-.37-.06-.55-.07,.03,0,.05,0,.08,0-.18-.02-.36-.03-.55-.04"/><path class="r" d="M55.31,49.26c-.34,.09-.66,.2-.98,.34h0c.31-.13,.64-.25,.98-.33h0Z"/><path class="l" d="M57.12,47.01h-.12l.25,2.02h.11c.31,.01,.61,.05,.91,.09l-.13-1.03-.13-1.04c-.3-.03-.6-.05-.9-.05m-2.04,.24c-.21,.05-.42,.11-.62,.17,.1-.03,.21-.06,.31-.09-.17,.05-.34,.1-.51,.15-.06,.02-.12,.04-.17,.06l.24,2.06c.31-.14,.64-.25,.98-.34l-.23-2.02Zm-.62,.17h0"/><path class="u" d="M6.14,61.16c-1.95,.04-3.57-1.51-3.61-3.47-.04-1.95,1.51-3.57,3.47-3.61,1.95-.04,3.57,1.51,3.61,3.47,.04,1.95-1.51,3.57-3.47,3.61m-.07-9.1c-3.07,0-5.56,2.49-5.56,5.56s2.49,5.56,5.56,5.56,5.56-2.49,5.56-5.56-2.49-5.56-5.56-5.56"/><path class="j" d="M6.07,52.07h0c-.92,0-1.79,.23-2.56,.62-1.78,.93-3,2.79-3,4.94,0,3.07,2.49,5.56,5.56,5.56-.17,0-.34-.01-.51-.02,.17-.02,.34-.04,.51-.07-2.59-.47-4.55-2.74-4.55-5.47s1.96-4.99,4.55-5.47c-.17-.03-.33-.05-.51-.07,.17-.02,.33-.03,.51-.03"/><path class="r" d="M6.07,52.06c.17,0,.34,.01,.51,.03-.17,.02-.34,.04-.51,.07,2.43,.45,4.3,2.46,4.53,4.96h1.01c-.23-2.55-2.17-4.6-4.67-4.99h-.1s-.02-.02-.03-.02h-.03l-.16-.02h-.04s-.01,0-.02,0h-.22l-.02-.02h-.1s-.01,0-.02,0h-.08s-.02,0-.03,0m4.95,8.09h-1.01c-.77,1.51-2.22,2.62-3.94,2.94,.17,.03,.33,.05,.51,.07-.17,.01-.33,.03-.51,.03,2.16,0,4.03-1.23,4.95-3.03"/><path class="p" d="M6.07,52.07h0c-.17,0-.34,.01-.51,.02,.17,.02,.34,.04,.51,.07,.17-.03,.33-.05,.51-.07-.17-.01-.33-.02-.51-.02m0,11.03c-.17,.03-.33,.05-.51,.07,.17,.02,.33,.03,.51,.03s.34-.01,.51-.03c-.17-.01-.34-.04-.51-.07"/><path class="u" d="M50.56,.51c1.41,0,2.55,1.14,2.55,2.55s-1.14,2.54-2.55,2.54-2.54-1.13-2.54-2.54,1.14-2.55,2.54-2.55"/><path class="j" d="M50.56,.51c-1.4,0-2.54,1.14-2.54,2.55,0,1.29,.96,2.35,2.19,2.51h0c-.05,0-.1-.02-.15-.03,.17-.03,.34-.09,.5-.16-.9-.39-1.53-1.28-1.53-2.33s.63-1.95,1.53-2.34c-.16-.07-.33-.12-.5-.16,.16-.03,.33-.05,.5-.05h0"/><path class="f" d="M50.57,.51h0c1.4,0,2.54,1.14,2.54,2.54h0c0-1.41-1.14-2.54-2.54-2.54"/><path class="r" d="M50.56,.51h0c.17,0,.34,.02,.5,.05-.17,.04-.34,.09-.5,.16,.9,.39,1.53,1.28,1.53,2.33s-.63,1.95-1.53,2.34c.07,.03,.13,.06,.2,.08h.05l.99-.2h0c.78-.43,1.31-1.26,1.31-2.22,0-1.4-1.14-2.54-2.54-2.54"/><path class="p" d="M50.56,.51c-.17,0-.34,.02-.5,.05,.17,.03,.35,.09,.51,.16,.16-.07,.32-.12,.5-.16-.16-.03-.33-.05-.5-.05m0,4.88c-.16,.07-.33,.12-.5,.16,.05,.01,.1,.02,.15,.03h0l.55-.11c-.07-.02-.14-.05-.2-.08"/></g><polygon class="t" points="4.55 57.12 46 57.12 46 60.15 8.59 60.15 4.55 57.12"/><g><path class="t" d="M2.13,53.69c1.01-1.01,2.4-1.63,3.93-1.63,2.9,0,5.28,2.22,5.54,5.05h2.02c-.26-3.95-3.54-7.08-7.56-7.08-2.1,0-3.99,.85-5.37,2.23l1.43,1.42h0Z"/><path class="t" d="M2.13,53.69c1.01-1.01,2.4-1.63,3.93-1.63,2.9,0,5.28,2.22,5.54,5.05h2.02c-.26-3.95-3.54-7.08-7.56-7.08-2.1,0-3.99,.85-5.37,2.23l1.43,1.42h0Z"/></g><polygon class="o" points="54.11 23.76 52.35 23.76 50.21 5.56 51.8 5.26 54.11 23.76"/><path class="n" d="M6.07,50.04c-2.1,0-3.99,.85-5.37,2.23l.72,.71c1.19-1.19,2.83-1.93,4.65-1.93,3.46,0,6.29,2.67,6.55,6.07h1.01c-.26-3.95-3.54-7.08-7.56-7.08"/><path class="e" d="M5.89,58.13l-1.34-1.01,1.34,1.01Z"/><polygon class="n" points="39.93 57.12 4.55 57.12 5.89 58.13 46 58.13 46 57.12 39.93 57.12"/><polygon class="l" points="7.25 59.14 8.59 60.15 46 60.15 46 59.14 7.25 59.14"/><g><path class="t" d="M54.11,23.76l4.02,32.35c0,.55-.45,1.01-1.01,1.01s-1.01-.46-1.01-1.01l-3.76-32.35h1.76Z"/><path class="l" d="M54.11,23.76h-1.01l4.02,32.35c0,.37-.21,.68-.51,.85,.15,.09,.32,.16,.51,.16,.56,0,1.01-.46,1.01-1.01l-.88-7.08-.25-2.02-2.89-23.25Z"/><path class="e" d="M48.04,55.56h0m0,.04v0m0,.05v0m0,.05s0,.02,0,.02c0,0,0-.02,0-.02m0,.05s0,.03,0,.04v-.04m0,.07s0,.02,0,.04c0-.01,0-.02,0-.04m0,.06s0,.02,0,.03c0-.01,0-.02,0-.03m0,.06s0,.02,0,.03c0-.01,0-.02,0-.03m0,.06v0m0,.05v0"/><path class="n" d="M54.46,47.42h0m0,0c-3.56,1.09-6.19,4.29-6.42,8.15h0v.17s0,.02,0,.03v.07s0,.02,0,.04v.02s0,.02,0,.03v.19h1.01c0-3.44,2.15-6.37,5.18-7.54l-.12-1.03c.06-.02,.12-.04,.17-.06,.06-.02,.12-.04,.18-.06"/><path class="q" d="M54.77,47.33c-.1,.03-.21,.06-.31,.09h0c-.06,.02-.12,.04-.19,.06,.17-.05,.34-.1,.51-.15"/><path class="e" d="M63.55,49.67l-.61,.83,.61-.83Z"/><path class="n" d="M57.12,47.01c.3,0,.6,.02,.9,.05l.13,1.04c1.87,.24,3.55,1.11,4.79,2.41l.61-.83c-1.65-1.65-3.92-2.66-6.43-2.66"/></g><polygon class="q" points="58.15 48.09 58.15 48.09 58.02 47.05 58.15 48.09"/><g><path class="f" d="M64.16,55.42h0m0,.04h0m0,.04h0m0,.04h0m0,.04v0m0,.04v0m0,.04v0m0,.04v0m0,.04v0m0,.04s0,.02,0,.02c0,0,0-.01,0-.02m0,.05v0m0,.04v0m0,.04v0m0,.05v0m0,.04v0m0,.05v0"/><path class="r" d="M58.27,49.13h0l.03,.27c2.83,.92,4.88,3.57,4.88,6.71,0,3.56-2.64,6.51-6.07,7,.17,.02,.34,.04,.51,.05-.17,.01-.33,.03-.51,.03,3.91,0,7.08-3.17,7.08-7.08v-.15s0-.02,0-.03v-.02s0-.02,0-.02v-.02s0-.01,0-.02v-.02s0-.02,0-.02v-.02s0-.01,0-.02v-.04s0-.02,0-.02v-.02s0-.02,0-.02v-.09h0v-.04h0v-.04h0v-.04h0c-.15-1.58-.82-3-1.83-4.1h0c-.53-.58-1.17-1.07-1.87-1.45-.67-.36-1.41-.61-2.19-.74"/><path class="l" d="M60.46,49.87c.7,.38,1.33,.87,1.87,1.45h0c-.53-.59-1.17-1.08-1.87-1.45"/><path class="h" d="M57.8,49.07c.16,.02,.32,.04,.47,.07h0c-.16-.03-.31-.05-.47-.07"/><path class="k" d="M57.72,49.06c.19,.02,.37,.04,.55,.07-.16-.03-.32-.05-.47-.07-.03,0-.05,0-.08,0"/><path class="j" d="M54.33,49.6h0c-2.24,.96-3.88,3.04-4.22,5.53h0v.09h-.01v.04h0v.06h0v.05s0,.01,0,.02v.02s0,.02,0,.03v.18s-.01,.01-.02,.02v.02s0,.02,0,.03h0s0,.04,0,.05h0v.04h0s0,.04,0,.05h0s0,.03,0,.05h0v.04h0s0,.04,0,.05h0s0,.03,0,.05h0v.04h0v.05c0,3.91,3.17,7.08,7.08,7.08-.17,0-.34-.01-.51-.02,.17-.01,.34-.03,.51-.06-3.43-.49-6.07-3.43-6.07-7,0-2.54,1.34-4.75,3.34-6l-.06-.51Z"/><polygon class="u" points="54.33 49.6 54.33 49.6 54.39 50.11 54.33 49.6"/><path class="g" d="M50.1,55.23h0m0,.03h0m0,.06h0m0,.03v0m0,.04s0,.01,0,.02v-.02m0,.05v0m0,.04s0,.01,0,.02c0,0,0-.01,0-.02m0,.04v0m0,.05v0m0,.05s0,.01,0,.02c0,0,0-.01,0-.02m0,.04v0m0,.04v0m0,.05v0m0,.04s0,.02,0,.03c0-.01,0-.02,0-.03m0,.04s0,.03,0,.04c0-.01,0-.03,0-.04m0,.05v0m0,.04v0m0,.04s0,.03,0,.04c0-.01,0-.03,0-.04m0,.05v0m0,.04v0"/><path class="u" d="M57.12,63.11c-.17,.02-.33,.04-.51,.05,.17,.01,.33,.03,.51,.03s.34-.01,.51-.03c-.17-.01-.34-.03-.51-.05"/></g><rect class="s" x="39.93" y="54.09" width="1.01" height="2.02"/><rect class="r" x="44.99" y="54.09" width="1.01" height="2.02"/><polygon class="r" points="44.99 56.11 42.96 56.11 40.94 56.11 39.93 56.11 39.93 57.12 46 57.12 46 56.11 44.99 56.11"/><path class="f" d="M52.35,23.76l-.12-1.03,.12,1.03Z"/><polygon class="d" points="52.23 22.73 52.35 23.76 54.11 23.76 53.98 22.73 52.23 22.73"/><path class="h" d="M50.81,5.45l.99-.19-.99,.19Z"/><polygon class="d" points="51.8 5.26 50.81 5.45 52.97 22.73 53.98 22.73 51.8 5.26"/><g><path class="m" d="M50.56,3.55c.13,0,.26-.05,.36-.15,.09-.09,.15-.22,.15-.36s-.05-.26-.15-.36c-.09-.09-.22-.15-.36-.15s-.26,.05-.36,.15c-.09,.09-.15,.22-.15,.36s.05,.26,.15,.36c.09,.09,.22,.15,.36,.15"/><path class="m" d="M53.62,49.38c-2.42,1.26-4.08,3.8-4.08,6.73,0,4.19,3.39,7.58,7.58,7.58s7.58-3.39,7.58-7.58c0-3.57-2.46-6.56-5.78-7.37-.27-.07-.54,.1-.61,.37-.07,.27,.1,.54,.37,.61,2.87,.7,5.01,3.29,5.01,6.38,0,1.82-.73,3.46-1.93,4.65-1.19,1.19-2.83,1.93-4.65,1.93s-3.46-.74-4.65-1.93c-1.19-1.19-1.93-2.83-1.93-4.65,0-2.54,1.44-4.73,3.54-5.83,.25-.13,.34-.44,.21-.68-.13-.25-.43-.34-.68-.21Z"/><path class="m" d="M53.81,51.64c-1.36,1.01-2.25,2.64-2.25,4.46,0,3.07,2.49,5.56,5.56,5.56s5.56-2.49,5.56-5.56c0-2.3-1.4-4.28-3.4-5.12-.26-.11-.55,.01-.66,.27-.11,.26,.01,.55,.27,.66,1.63,.69,2.78,2.31,2.78,4.19,0,1.26-.51,2.39-1.33,3.22-.82,.82-1.96,1.33-3.22,1.33s-2.39-.51-3.22-1.33c-.82-.82-1.33-1.96-1.33-3.22,0-1.5,.72-2.82,1.84-3.65,.22-.17,.27-.48,.1-.71-.17-.22-.48-.27-.71-.1Z"/><path class="m" d="M53.41,47.24c-1.12,.47-2.17,1.16-3.09,2.07-1.87,1.88-2.81,4.34-2.81,6.79,0,.28,.23,.51,.51,.51s.51-.23,.51-.51c0-2.2,.84-4.4,2.52-6.08,.82-.82,1.76-1.43,2.76-1.85,.26-.11,.38-.4,.27-.66-.11-.26-.4-.38-.66-.27Z"/><path class="m" d="M63.91,49.32c-1.49-1.49-3.35-2.39-5.29-2.7-.28-.04-.53,.14-.58,.42-.04,.28,.15,.53,.42,.58,1.73,.27,3.39,1.07,4.73,2.41,.2,.2,.52,.2,.72,0,.2-.2,.2-.52,0-.72Z"/><path class="m" d="M11.72,55.42c-.88-2.26-3.08-3.86-5.65-3.86-3.35,0-6.07,2.72-6.07,6.07s2.72,6.07,6.07,6.07c1.61,0,3.08-.63,4.17-1.66,.2-.19,.21-.51,.02-.71-.19-.2-.51-.21-.72-.02-.91,.86-2.13,1.38-3.47,1.38-1.4,0-2.66-.57-3.57-1.48-.92-.92-1.48-2.18-1.48-3.57s.57-2.66,1.48-3.58c.92-.92,2.18-1.48,3.57-1.48,2.14,0,3.98,1.34,4.71,3.22,.1,.26,.39,.39,.65,.29,.26-.1,.39-.39,.29-.66Z"/><path class="m" d="M13.86,55.47c-.36-1.3-1.05-2.54-2.08-3.56-1.58-1.58-3.65-2.37-5.72-2.37-2.07,0-4.14,.79-5.72,2.37-.2,.2-.2,.52,0,.72,.2,.2,.52,.2,.72,0,1.38-1.38,3.19-2.07,5-2.07s3.62,.69,5.01,2.07c.9,.9,1.5,1.97,1.82,3.12,.07,.27,.35,.43,.62,.35,.27-.07,.43-.35,.35-.62"/><path class="m" d="M51.51,6.9l6.12,49.27c.03,.28,.29,.47,.56,.44,.28-.03,.47-.29,.44-.56L52.51,6.78c-.03-.28-.29-.47-.56-.44-.28,.03-.47,.29-.44,.56"/><path class="m" d="M56.61,56.05L50.92,7.05c-.03-.28-.28-.47-.56-.44-.28,.03-.48,.28-.44,.56l5.69,49c.03,.28,.28,.48,.56,.44,.28-.03,.48-.28,.44-.56"/><path class="m" d="M52.98,41.46s-2.63,.53-5.38,2.49c-2.74,1.95-5.64,5.39-6.15,11.11-.02,.28,.18,.52,.46,.55,.28,.02,.52-.18,.55-.46,.5-5.41,3.16-8.54,5.73-10.38,1.28-.92,2.54-1.5,3.47-1.85,.47-.17,.85-.29,1.12-.37,.13-.04,.24-.06,.3-.08l.08-.02h.02c.27-.06,.45-.33,.4-.6-.06-.27-.32-.45-.6-.4Z"/><path class="m" d="M44.47,55.33c.42-4.6,2.67-7.28,4.84-8.87,1.08-.79,2.15-1.3,2.94-1.61,.4-.15,.73-.26,.96-.32,.23-.07,.36-.09,.36-.09,.27-.06,.45-.32,.39-.6-.06-.27-.32-.45-.6-.39-.09,.02-2.31,.49-4.66,2.2-2.35,1.7-4.81,4.69-5.25,9.59-.03,.28,.18,.52,.46,.55,.28,.03,.52-.18,.55-.46Z"/><path class="m" d="M46,56.61H4.55c-.28,0-.51,.23-.51,.51s.23,.51,.51,.51H46c.28,0,.51-.23,.51-.51s-.23-.51-.51-.51"/><path class="m" d="M46,59.65H8.59c-.28,0-.51,.23-.51,.51s.23,.51,.51,.51H46c.28,0,.51-.23,.51-.51s-.23-.51-.51-.51"/><path class="m" d="M8.9,59.75l-4.04-3.03c-.22-.17-.54-.12-.71,.1-.17,.22-.12,.54,.1,.71l4.04,3.03c.22,.17,.54,.12,.71-.1,.17-.22,.12-.54-.1-.71"/><path class="m" d="M46,53.58h-1.88c-.28,0-.51,.23-.51,.51s.23,.51,.51,.51h1.88c.28,0,.51-.23,.51-.51s-.23-.51-.51-.51"/><path class="m" d="M39.43,54.09v2.02c0,.28,.23,.51,.51,.51s.51-.23,.51-.51v-2.02c0-.28-.23-.51-.51-.51s-.51,.23-.51,.51"/><path class="m" d="M45.49,54.09v2.02c0,.28,.23,.51,.51,.51s.51-.23,.51-.51v-2.02c0-.28-.23-.51-.51-.51s-.51,.23-.51,.51"/><path class="m" d="M41.45,55.1c0,.83,.68,1.51,1.51,1.51,.83,0,1.51-.68,1.51-1.51,0-.28-.23-.51-.51-.51s-.51,.23-.51,.51-.23,.5-.5,.5-.5-.22-.5-.5c0-.28-.23-.51-.51-.51s-.51,.23-.51,.51Z"/><path class="m" d="M42.07,53.58h-2.14c-.28,0-.51,.23-.51,.51s.23,.51,.51,.51h2.14c.28,0,.51-.23,.51-.51s-.23-.51-.51-.51"/><path class="m" d="M45.49,57.12v3.03c0,.28,.23,.51,.51,.51s.51-.23,.51-.51v-3.03c0-.28-.23-.51-.51-.51s-.51,.23-.51,.51"/><path class="m" d="M63.15,49.37l-1.22,1.65c-.17,.22-.12,.54,.1,.71,.22,.17,.54,.12,.71-.1l1.22-1.65c.17-.22,.12-.54-.1-.71-.22-.17-.54-.12-.71,.1"/><path class="m" d="M48.02,56.61h2.02c.28,0,.51-.23,.51-.51s-.23-.51-.51-.51h-2.02c-.28,0-.51,.23-.51,.51s.23,.51,.51,.51"/><path class="m" d="M55.6,56.11c0,.84,.68,1.52,1.52,1.52s1.52-.68,1.52-1.52c0-.28-.23-.51-.51-.51s-.51,.23-.51,.51c0,.28-.23,.51-.51,.51s-.5-.23-.51-.51c0-.28-.23-.51-.51-.51s-.51,.23-.51,.51Z"/><path class="m" d="M61.16,55.6h-1.01c-.28,0-.51,.23-.51,.51s.23,.51,.51,.51h1.01c.28,0,.51-.23,.51-.51s-.23-.51-.51-.51"/><path class="m" d="M54.09,55.6h-1.01c-.28,0-.51,.23-.51,.51s.23,.51,.51,.51h1.01c.28,0,.51-.23,.51-.51s-.23-.51-.51-.51"/><path class="m" d="M59.58,59.36l-.51-.88c-.14-.24-.45-.32-.69-.18-.24,.14-.32,.45-.19,.69l.51,.88c.14,.24,.45,.32,.69,.18,.24-.14,.32-.45,.18-.69"/><path class="m" d="M55.53,59.86l.51-.88c.14-.24,.06-.55-.18-.69-.24-.14-.55-.06-.69,.18l-.51,.88c-.14,.24-.06,.55,.18,.69,.24,.14,.55,.06,.69-.18"/><path class="m" d="M.35,52.62l1.43,1.43c.2,.2,.52,.2,.72,0,.2-.2,.2-.52,0-.72l-1.43-1.43c-.2-.2-.52-.2-.72,0-.2,.2-.2,.52,0,.72"/><path class="m" d="M48.02,3.05h-.51c0,1.68,1.36,3.05,3.05,3.05,1.68,0,3.05-1.37,3.05-3.05S52.25,0,50.56,0c-1.68,0-3.05,1.37-3.05,3.05h1.01c0-1.12,.91-2.04,2.04-2.04,1.12,0,2.04,.91,2.04,2.04,0,1.12-.91,2.04-2.04,2.04-1.12,0-2.03-.91-2.04-2.04h-.51Z"/><path class="m" d="M53.08,37.41h-1.01c-.28,0-.51,.23-.51,.51s.23,.51,.51,.51h1.01c.28,0,.51-.23,.51-.51s-.23-.51-.51-.51"/><path class="m" d="M51.56,37.91v3.03c0,.28,.23,.51,.51,.51s.51-.23,.51-.51v-3.03c0-.28-.23-.51-.51-.51s-.51,.23-.51,.51"/><path class="m" d="M55.07,23.25h-4.02c-.28,0-.51,.23-.51,.51s.23,.51,.51,.51h4.02c.28,0,.51-.23,.51-.51s-.23-.51-.51-.51"/><path class="m" d="M7.02,60.51c-.3,.1-.62,.15-.95,.15-1.67,0-3.03-1.36-3.03-3.03,0-1.67,1.36-3.03,3.03-3.03,1.03,0,1.94,.51,2.49,1.3,.16,.23,.47,.29,.7,.13,.23-.16,.28-.47,.13-.7-.73-1.05-1.95-1.73-3.32-1.73-2.23,0-4.04,1.81-4.04,4.04,0,2.23,1.81,4.04,4.04,4.04,.44,0,.87-.07,1.27-.2,.27-.09,.41-.37,.32-.64-.09-.27-.37-.41-.64-.32Z"/></g></g></g></g></svg>