<?xml version="1.0" encoding="UTF-8"?><svg xmlns="http://www.w3.org/2000/svg" viewBox="0 0 61.49 55.98"><defs><style>.d{fill:#ffe17a;}.e{fill:#c5c5c5;}.f{stroke-linecap:round;stroke-linejoin:round;}.f,.g{fill:none;stroke:#6b6b6b;stroke-width:1.2px;}.h{fill:#d6d6d6;}.g{stroke-miterlimit:10;}.i{fill:#6b6b6b;}.j{fill:#929292;}.k{fill:gray;}.l{fill:#8f8f8f;}.m{fill:#e4e4e4;}.n{fill:#b6b6b6;}.o{fill:#ababab;}.p{fill:#b3b3b3;}.q{fill:#f5dc52;}.r{fill:#888;}.s{fill:#f5cd00;}</style></defs><g id="a"/><g id="b"><g id="c"><g><g><path class="s" d="M0,8.58H60.19c0-2.14-.87-4.09-2.27-5.49-1.41-1.4-3.35-2.27-5.49-2.27H7.77C3.48,.81,0,4.28,0,8.58"/><path class="n" d="M1.94,43.22c-.79,1.11-1.36,2.37-1.67,3.73-.28,1.22,.64,2.4,1.89,2.4h2.69c0-3.21,2.61-5.82,5.82-5.82s5.82,2.61,5.82,5.82h2.69c1.1,0,1.94-.9,1.94-1.95,0-.15,0-.3-.05-.45-1.09-4.74-5.33-8.28-10.41-8.28-3.62,0-6.81,1.8-8.74,4.55"/><path class="p" d="M1.94,32.84v10.38c1.92-2.76,5.12-4.55,8.74-4.55,5.08,0,9.32,3.54,10.41,8.28,.04,.15,.05,.3,.05,.45h9.93v-14.55H1.94Z"/></g><polygon class="q" points="1.94 28.96 1.94 32.84 31.06 32.84 31.06 28.96 16.5 28.96 9.71 28.96 1.94 28.96"/><g><path class="n" d="M5.82,19.25c-1.07,0-1.94,.87-1.94,1.94,0,.53,.21,1.02,.57,1.37,.35,.36,.83,.57,1.37,.57h1.24c.42,0,.79,.27,.92,.66l1.72,5.16h6.8l-3.78-7.56c-.66-1.31-2.01-2.14-3.48-2.14h-3.43Z"/><path class="k" d="M10.68,51.29c1.07,0,1.94-.87,1.94-1.94s-.87-1.94-1.94-1.94-1.94,.87-1.94,1.94,.87,1.94,1.94,1.94m5.82-1.94c0,3.21-2.61,5.82-5.82,5.82s-5.82-2.61-5.82-5.82,2.61-5.82,5.82-5.82,5.82,2.61,5.82,5.82"/><path class="o" d="M10.68,47.4c-1.07,0-1.94,.87-1.94,1.94s.87,1.94,1.94,1.94,1.94-.87,1.94-1.94-.87-1.94-1.94-1.94"/><path class="j" d="M31.06,35.76v11.65h12.62l3.75-5.82h-5.69v-1.94c0-2.14-1.74-3.88-3.88-3.88h-6.8Z"/><path class="n" d="M31.06,32.84v2.91h6.8c2.14,0,3.88,1.74,3.88,3.88v-6.8c0-1.07-.87-1.94-1.94-1.94h-2.91c-1.07,0-1.94-.87-1.94-1.94v-4.85c0-1.07-.87-1.94-1.94-1.94h-1.94v10.68Z"/></g><polygon class="p" points="41.74 39.64 41.74 41.58 47.43 41.58 52.42 33.81 49.64 35.08 41.74 38.67 41.74 39.64"/><polygon class="h" points="47.43 41.58 43.68 47.4 46.59 47.4 50.38 42.48 55.54 35.77 56.3 34.78 56.3 27.99 50.48 8.57 46.59 8.57 50.96 23.14 52.42 27.99 52.42 33.81 47.43 41.58"/><g><path class="r" d="M45.14,23.14c-.81,0-1.46,.65-1.46,1.46s.65,1.46,1.46,1.46h4.37v8.74l.14,.29,2.78-1.26v-5.82l-1.46-4.85h-5.82Z"/><path class="p" d="M55.54,35.77l-5.16,6.72,.1,.07h7.2c1.38,0,2.5-1.13,2.5-2.51,0-.32-.06-.62-.17-.92-.41-1.02-1.62-3.25-4.47-3.36"/><path class="m" d="M51.45,42.55l1.05,3.86,.78,2.83c.17,.63,.79,1.07,1.49,1.07,1.01,0,1.74-.86,1.5-1.76l-.97-3.08-.92-2.93h-2.91Z"/><path class="k" d="M50.48,50.32c0,2.68,2.18,4.85,4.85,4.85s4.85-2.17,4.85-4.85-2.18-4.85-4.85-4.85l-.05,.02,.97,3.08c.24,.89-.49,1.76-1.49,1.76-.7,0-1.32-.44-1.49-1.07l-.78-2.83-.08,.02c-1.17,.88-1.94,2.29-1.94,3.88"/><path class="q" d="M52.42,4.69H7.77c-2.87,0-5.38,1.56-6.72,3.88H0C0,4.28,3.48,.81,7.77,.81H52.42c2.14,0,4.09,.87,5.49,2.27,1.4,1.41,2.27,3.35,2.27,5.49h-1.05c-.34-.59-.75-1.13-1.22-1.61-1.41-1.4-3.35-2.27-5.49-2.27"/></g><rect class="n" x="52.42" y="27.99" width="1.94" height="5.82"/><g><path class="n" d="M49.87,11.76l4.49,16.23h-1.94l-1.46-4.85-4.37-14.56h3.88l.58,1.94h-.26c-.65,0-1.11,.62-.93,1.24"/><path class="n" d="M43.68,47.4l3.75-5.82,4.99-7.77h1.94l-7.68,11.1c-.42,.61-.03,1.42,.68,1.51l-.76,.99h-2.91Z"/><path class="o" d="M32.03,24.11c.54,0,.97,.43,.97,.97v4.85c0,1.61,1.3,2.91,2.91,2.91h2.91c1.61,0,2.91,1.3,2.91,2.91v3.88c0-2.14-1.74-3.88-3.88-3.88h-6.8v-11.65h.97Z"/><path class="l" d="M46.2,38.77l2.04-3.06,1.4-.64,2.78-1.26-4.99,7.77h-5.69v-1.94h2.84c.65,0,1.26-.32,1.62-.86"/><path class="s" d="M28.15,28.96h0c0,1.07-.87,1.94-1.94,1.94H6.79c-1.07,0-1.94-.87-1.94-1.94H1.94v3.88H31.06v-3.88h-2.91Z"/><path class="r" d="M33.98,35.76v6.8c0,1.07,.87,1.94,1.94,1.94h5.7c.68,0,1.31-.36,1.66-.94l1.18-1.97h2.97l-3.75,5.82h-12.62v-11.65h2.91Z"/><path class="o" d="M.27,46.98c.09-.41,.22-.81,.36-1.2l.5,.25c.54,.27,1.13,.41,1.74,.41,.38,0,.71-.23,.88-.57,1.28-2.54,3.9-4.29,6.94-4.29s5.66,1.75,6.94,4.29c.17,.34,.5,.57,.88,.57,.6,0,1.2-.14,1.74-.41l.5-.25c.14,.38,.26,.77,.35,1.17,.04,.15,.05,.3,.05,.45,0,1.05-.84,1.95-1.94,1.95h-2.69c0-1.06-.29-2.05-.79-2.91-1.01-1.74-2.89-2.91-5.04-2.91s-4.03,1.17-5.04,2.91c-.5,.86-.79,1.85-.79,2.91H2.16c-1.24,0-2.17-1.16-1.9-2.37"/><path class="l" d="M10.68,35.76c5.3,0,9.84,3.13,11.82,7.59,.31,.7,1,1.14,1.76,1.14h1.34c1.07,0,1.94-.87,1.94-1.94v-9.71h3.52v14.56h-9.93c0-.15,0-.31-.05-.46-1.09-4.74-5.33-8.28-10.41-8.28-3.62,0-6.81,1.8-8.74,4.55v-4.1c2.29-2.09,5.36-3.37,8.74-3.37"/><path class="l" d="M55.54,35.77c.88,.03,1.59,.28,2.19,.63l-2.11,2.64c-.51,.64-.06,1.58,.76,1.58h3.73c-.26,1.11-1.25,1.94-2.43,1.94h-7.2l-.1-.07,5.16-6.72Z"/><path class="e" d="M54.36,42.55l.31,.97h-.9c-.66,0-1.13,.65-.92,1.28l1.84,5.51c-.67-.03-1.25-.45-1.41-1.06l-.78-2.83-1.05-3.86h2.91Z"/><path class="f" d="M5.65,49.35c0-2.78,2.25-5.03,5.03-5.03s5.03,2.25,5.03,5.03-2.25,5.03-5.03,5.03-5.03-2.25-5.03-5.03Zm-1.01,0c0,3.33,2.7,6.03,6.03,6.03s6.03-2.7,6.03-6.03-2.71-6.03-6.03-6.03-6.03,2.7-6.03,6.03Z"/><path class="i" d="M8.74,49.35c0-1.07,.87-1.94,1.94-1.94s1.94,.87,1.94,1.94-.87,1.94-1.94,1.94-1.94-.87-1.94-1.94m-.97,0c0,1.61,1.3,2.91,2.91,2.91s2.91-1.3,2.91-2.91-1.3-2.91-2.91-2.91-2.91,1.3-2.91,2.91"/><path class="f" d="M53.37,49.66c-.07,.21-.12,.43-.12,.66,0,1.15,.93,2.08,2.08,2.08s2.08-.93,2.08-2.08c0-.79-.44-1.46-1.08-1.82,0-.02,0-.04,0-.07l-.37-1.18c1.43,.29,2.5,1.55,2.5,3.06,0,1.72-1.4,3.12-3.12,3.12s-3.12-1.4-3.12-3.12c0-.74,.27-1.41,.7-1.94l.22,.8c.05,.18,.13,.34,.24,.49Z"/><path class="o" d="M57.27,50.32c0,1.07-.87,1.94-1.94,1.94s-1.94-.87-1.94-1.94c0-.22,.04-.42,.11-.61,.28,.37,.75,.61,1.26,.61,.99,0,1.7-.82,1.5-1.69,.6,.33,1.01,.96,1.01,1.69"/></g><rect class="i" x="30.09" y="8.58" width="1.94" height="38.83"/><g><path class="i" d="M1.94,43.22c-.37,.53-.7,1.09-.97,1.69V8.57h1.94V42.04c-.35,.37-.68,.76-.97,1.18"/><path class="d" d="M16.24,30.9h7.31c.39,0,.71-.32,.71-.71v-.52c0-.39-.32-.71-.71-.71h-7.31c-.39,0-.71,.32-.71,.71v.52c0,.39,.32,.71,.71,.71"/><path class="d" d="M11.39,30.9h1.49c.39,0,.71-.32,.71-.71v-.52c0-.39-.32-.71-.71-.71h-1.49c-.39,0-.71,.32-.71,.71v.52c0,.39,.32,.71,.71,.71"/><path class="d" d="M7.39,30.89h1.52c.38,0,.7-.31,.7-.7v-.5c0-.38-.31-.7-.7-.7h-1.52c-.38,0-.7,.31-.7,.7v.5c0,.38,.31,.7,.7,.7"/><path class="g" d="M46.71,8.43l4.4,14.67,1.47,10.76-4.21,1.91-6.54,2.98-10.75-2.93V8.43h15.64Zm-15.64,20.54H1.74M1.74,8.43H50.61M.76,8.43S-.88,.6,7.61,.6H49.15s11.85-.02,11.24,7.83h-9.77l5.11,17.04,.76,9.37s6.29,3.91,3.84,5.87-5.79,1.96-5.79,1.96l.93,2.95s5.38,.12,4.94,4.87c-.44,3.91-4.7,5.56-7.82,3.89-3.12-1.68-2.73-6.88,.08-7.82l-1.05-3.89-1.08-.07-3.81,4.96H21.07l-4.66,1.96s-.75,5.83-5.86,5.87c-5.12,.03-4.74-2.36-5.86-5.87-2.71,0-3.82,1.26-2.93-6.17,.98-8.21-.36-33.51-.36-33.51l-.62-1.4Z"/></g></g></g></g></svg>