<?xml version="1.0" encoding="UTF-8"?><svg xmlns="http://www.w3.org/2000/svg" viewBox="0 0 81.71 62.56"><defs><style>.d{fill:#979797;}.e{fill:#fff;}.f{fill:#c5c5c5;}.g{fill:#cacaca;}.h{fill:#9c9c9c;}.i{fill:#a9a9a9;}.j{fill:#9f9f9f;}.k{fill:#dedede;}.l{fill:#6b6b6b;}.m{fill:#cfcfcf;}.n{fill:#bdbdbd;}.o{fill:#e1e1e1;}.p{fill:#d4d4d4;}.q{fill:#8f8f8f;}.r{fill:#e6c538;}.s{fill:#737373;}.t{fill:#858585;}.u{fill:#ebd473;}.v{fill:#b1b1b1;}.w{fill:#ababab;}.x{fill:#b3b3b3;}.y{fill:#c2c2c2;}.a`{fill:#eee;}.aa{fill:#888;}.ab{fill:#f5cd00;}</style></defs><g id="a"/><g id="b"><g id="c"><g><path class="aa" d="M25.54,51.72c0,5.64-4.57,10.22-10.22,10.22s-10.22-4.57-10.22-10.22,4.57-10.22,10.22-10.22,10.22,4.58,10.22,10.22"/><path class="w" d="M6.38,51.72h-1.28c0,5.64,4.57,10.22,10.22,10.22-.22,0-.43-.02-.64-.03,.21-.01,.43-.03,.64-.06-5.04-.63-8.94-4.92-8.94-10.12"/><path class="s" d="M25.54,51.72h-1.28c0,5.21-3.9,9.5-8.94,10.12,.21,.03,.42,.05,.64,.06-.21,.01-.42,.03-.64,.03,5.64,0,10.22-4.57,10.22-10.22"/><path class="aa" d="M15.32,61.85c-.21,.03-.42,.05-.64,.06,.21,.01,.42,.03,.64,.03s.43-.02,.64-.03c-.21-.01-.43-.03-.64-.06"/><path class="p" d="M20.43,51.72c0,2.82-2.29,5.11-5.11,5.11s-5.11-2.29-5.11-5.11,2.29-5.11,5.11-5.11,5.11,2.29,5.11,5.11"/><path class="aa" d="M81.07,51.72c0,5.64-4.57,10.22-10.22,10.22s-10.22-4.57-10.22-10.22,4.57-10.22,10.22-10.22,10.22,4.58,10.22,10.22"/><path class="p" d="M75.96,51.72c0,2.82-2.29,5.11-5.11,5.11s-5.11-2.29-5.11-5.11,2.29-5.11,5.11-5.11,5.11,2.29,5.11,5.11"/><path class="a`" d="M70.86,46.61c-2.82,0-5.11,2.29-5.11,5.11s2.29,5.11,5.11,5.11c-.22,0-.43-.04-.64-.06,.22-.03,.43-.07,.64-.12-2.2-.57-3.83-2.55-3.83-4.92s1.63-4.35,3.83-4.92c-.21-.05-.42-.1-.64-.12,.21-.03,.42-.06,.64-.06"/><path class="i" d="M70.86,46.61c.22,0,.43,.04,.64,.06-.22,.03-.43,.07-.64,.12,2.2,.57,3.83,2.55,3.83,4.92s-1.63,4.35-3.83,4.92c.21,.05,.42,.1,.64,.12-.21,.03-.42,.06-.64,.06,2.82,0,5.11-2.29,5.11-5.11s-2.29-5.11-5.11-5.11"/><path class="n" d="M70.86,46.62h0c-.22,0-.43,.04-.64,.06,.22,.03,.43,.07,.64,.12,.21-.05,.42-.1,.64-.12-.21-.03-.42-.06-.64-.06m0,10.03c-.21,.05-.42,.1-.64,.12,.21,.03,.42,.06,.64,.06s.43-.04,.64-.06c-.22-.03-.43-.07-.64-.12"/><path class="a`" d="M11.49,51.72h-1.28c0,2.82,2.29,5.11,5.11,5.11-.22,0-.43-.04-.64-.06,.22-.03,.43-.07,.64-.12-2.2-.57-3.83-2.55-3.83-4.92"/><path class="i" d="M20.43,51.72h-1.28c0,2.37-1.63,4.35-3.83,4.92,.21,.05,.42,.1,.64,.12-.21,.03-.42,.06-.64,.06,2.82,0,5.11-2.29,5.11-5.11"/><path class="n" d="M15.32,56.64c-.21,.05-.42,.1-.64,.12,.21,.03,.42,.06,.64,.06s.43-.04,.64-.06c-.22-.03-.43-.07-.64-.12"/><path class="s" d="M72.46,43c-1.78,0-3.68,.28-5.44,1.07-3.01,1.35-5.03,3.96-6.27,6.15-.07,.49-.11,1-.11,1.51v.05c0,.46,.05,.92,.11,1.36,.83-2.01,2.94-6.17,6.8-7.91,1.41-.63,3.06-.95,4.91-.95,2.72,0,5.2,.7,6.38,1.09-.56-.7-1.2-1.32-1.92-1.85-1.27-.28-2.82-.52-4.47-.52"/><path class="y" d="M67.03,44.06c-5.78,2.6-7.92,9.83-7.92,9.83-.65-1.46-.98-2.96-1.02-4.47-.05-2.82,.93-5.58,2.76-7.72,1.06-1.25,2.41-2.29,4.01-3.01,1.41-.64,2.87-.97,4.33-1.01,4.53-.15,8.91,2.39,10.88,6.77,0,0-7.24-2.99-13.04-.38"/><path class="f" d="M69.57,37.67h0Zm0,0c-.11,0-.22,0-.34,0,.11,0,.22,0,.34,0m7.44,5.86h0c1.83,.42,3.05,.91,3.05,.91,0,0-1.22-.5-3.05-.91m3,.8s0,.02,.01,.02c0,0,0-.02-.01-.02"/><path class="h" d="M69.57,37.67h0c-.11,0-.23,0-.34,0-.02,0-.03,0-.05,0,.04,0,.07,0,.11,0,.25,0,.49,.03,.73,.04-.36,.02-.72,.06-1.08,.12,3.33,.57,6.32,2.6,8.06,5.69,1.84,.41,3.05,.92,3.05,.92-.01-.03-.03-.06-.04-.09,0,0,0-.02-.01-.02-1.93-4.18-6.07-6.65-10.42-6.66h-.02Z"/><path class="e" d="M59.78,52.15c-.45,1.02-.65,1.71-.67,1.75,.01-.04,.22-.73,.67-1.75Z"/><path class="k" d="M68.53,37.77l-1.82,.26c-.62,.16-1.24,.38-1.85,.66-1.6,.73-2.95,1.76-4.01,3.01-1.78,2.09-2.76,4.77-2.76,7.53,0,.07,0,.13,0,.2,.04,1.51,.37,3.01,1.02,4.47h0s.22-.73,.67-1.75c-.24-.9-.39-1.81-.41-2.72-.05-2.82,.93-5.58,2.76-7.72,1.06-1.25,2.41-2.29,4.01-3.01,.92-.42,1.86-.7,2.81-.85-.14-.02-.28-.05-.42-.06"/><path class="g" d="M69.29,37.68s-.07,0-.11,0l-.66,.09c.14,.02,.28,.04,.42,.06,.36-.06,.72-.1,1.08-.12-.25-.01-.49-.04-.73-.04"/><path class="f" d="M81.07,51.43h0m0,.05v0m0,.06v0m0,.06v0m0,.06v0"/><path class="s" d="M77.15,44.88c1.64,1.81,2.65,4.21,2.65,6.85,0,5.21-3.9,9.5-8.94,10.12,.21,.03,.42,.05,.64,.06-.21,.01-.42,.03-.64,.03,5.64,0,10.22-4.57,10.22-10.22v-.15s0-.02,0-.03v-.06s0-.03,0-.04h0c-.06-2.31-.89-4.41-2.23-6.08-.42-.14-1-.31-1.7-.49"/><path class="e" d="M69.9,61.89h0m.06,0h0m.29,.02h0m.05,0h0m.06,0h0m.06,0h0m.06,0h0m.06,0s.02,0,.03,0c-.01,0-.02,0-.03,0m.06,0s.03,0,.04,0c-.01,0-.02,0-.04,0m.06,0h0m.06,0h0m.06,0h0"/><path class="w" d="M61.97,50.66c-.55,.95-.96,1.83-1.23,2.48,.65,4.66,4.43,8.32,9.15,8.76h0s.04,0,.06,0h0c.1,0,.19,.02,.28,.02h.02s.03,0,.04,0c0,0,.01,0,.02,0,.01,0,.02,0,.04,0,0,0,.02,0,.03,0,.01,0,.02,0,.03,0,.01,0,.02,0,.03,0h.03s.02,0,.03,0h.09s.02,0,.04,0h.03s.03,0,.04,0h.15c-.21,0-.43-.02-.64-.03,.22-.01,.43-.03,.64-.06-5.04-.63-8.94-4.92-8.94-10.12,0-.36,.02-.72,.06-1.07"/><path class="d" d="M70.86,61.85c-.21,.03-.42,.05-.64,.06,.21,.01,.42,.03,.64,.03s.43-.02,.64-.03c-.21-.01-.43-.03-.64-.06"/><path class="n" d="M50.07,5.81c.68-.2,1.39,.19,1.58,.87,.2,.68-.18,1.38-.86,1.58-.68,.2-1.39-.19-1.6-.87-.19-.68,.19-1.38,.87-1.58"/><path class="aa" d="M51.66,6.68c-.19-.68-.91-1.07-1.58-.87l5.6-1.65c-.09,.29-.14,.63-.14,.96,0,.59,.15,1.14,.43,1.61l-5.17,1.53c.68-.2,1.06-.91,.86-1.58"/><path class="p" d="M58.73,1.93v6.38c-.35,0-.67-.05-.97-.15-.75-.24-1.39-.75-1.78-1.43h-.01c-.28-.47-.43-1.02-.43-1.61,0-.33,.05-.66,.14-.96h.01c.41-1.3,1.61-2.23,3.04-2.23"/><polygon class="ab" points="62.71 9.04 58.73 8.31 58.73 1.93 65.75 .65 65.75 9.59 62.71 9.04"/><path class="i" d="M55.54,5.12h0c0,.59,.15,1.14,.43,1.61h.01c.38,.68,1.02,1.19,1.78,1.43,.3,.1,.62,.15,.97,.15v-1.28c-.35,0-.67-.05-.97-.15-.75-.24-1.39-.75-1.78-1.43h-.01c-.06-.11-.12-.22-.16-.33-.05,.1-.08,.21-.12,.32h-.01l-.06,.28c-.04-.2-.08-.39-.08-.6"/><polygon class="i" points="58.73 7.04 58.73 8.31 61.14 8.75 61.13 8.69 62.71 9.04 65.75 9.59 65.75 8.31 62.71 7.77 58.73 7.04"/><path class="a`" d="M58.73,1.93c-1.43,0-2.63,.93-3.04,2.23h-.01c-.09,.29-.14,.61-.14,.93,0-.22,.03-.44,.08-.65,.04,.24,.1,.46,.19,.68,.49-1.13,1.61-1.92,2.92-1.92V1.93Z"/><polygon class="a`" points="65.75 .65 58.73 1.93 58.73 3.21 65.75 1.93 65.75 .65"/><g><path class="o" d="M55.62,4.44c-.05,.21-.08,.43-.08,.66v.02c0,.21,.04,.4,.08,.6l.06-.28h.01c.03-.11,.07-.21,.12-.32-.09-.22-.15-.45-.19-.68"/><path class="aa" d="M37.66,19.8v7.66c0,.7-.56,1.28-1.28,1.28H12.13c-.7,0-1.28-.57-1.28-1.28v-5.11c0-.7,.57-1.28,1.28-1.28h22.98c.71,0,1.28-.57,1.28-1.28h1.28Z"/><path class="s" d="M37.66,19.8h-1.28c0,.7-.56,1.28-1.28,1.28v6.38c0,.7-.56,1.28-1.28,1.28h2.55c.71,0,1.28-.57,1.28-1.28v-7.66Z"/><path class="j" d="M14.68,21.08h-2.55c-.7,0-1.28,.57-1.28,1.28v5.11c0,.7,.57,1.28,1.28,1.28h2.55c-.7,0-1.28-.57-1.28-1.28v-5.11c0-.7,.57-1.28,1.28-1.28"/></g><polygon class="r" points="12.13 31.29 4.47 37.86 4.47 33.85 12.13 31.29"/><polygon class="u" points="12.13 31.29 4.47 33.85 4.47 35.12 9.69 33.38 12.13 31.29"/><g><path class="ab" d="M30,50.44H.64c0-3.69,1.8-7.01,4.67-9.33,2.62-2.13,6.14-3.44,10.01-3.44,8.12,0,14.68,5.72,14.68,12.77"/><path class="h" d="M15.32,37.68c.42,0,.84,.03,1.25,.05-.43,.03-.85,.08-1.26,.14,6.91,1.05,12.14,6.27,12.14,12.57h2.55c0-7.05-6.56-12.77-14.68-12.77"/><path class="k" d="M15.25,37.68c-3.84,.02-7.34,1.31-9.94,3.44-2.87,2.32-4.67,5.64-4.67,9.33H3.19c0-3.69,1.8-7.01,4.67-9.33,2.02-1.65,4.59-2.8,7.44-3.24-.43-.06-.86-.11-1.29-.14,.41-.03,.82-.05,1.24-.05"/><path class="g" d="M15.32,37.68h-.07c-.42,0-.83,.02-1.24,.05,.44,.03,.87,.08,1.29,.14,.41-.06,.84-.11,1.26-.14-.41-.03-.83-.05-1.25-.05"/><path class="x" d="M62.71,9.04l-3.98-.73c-.34,0-.66-.05-.97-.15l.33,1.52c1.52,9.26,1.28,25,1.28,26.72,0,1.86-.56,3.57-1.52,4.99-1.6,2.36-4.26,3.91-7.31,3.95h-11.59c-3.52,0-6.38-2.86-6.38-6.38,0-6.38,3.83-7.66,3.83-7.66v-2.55H12.13v2.55l-7.66,6.56-1.28,1.1,1.94,1.94,.18,.22c2.62-2.13,6.14-3.44,10.01-3.44,8.12,0,14.68,5.72,14.68,12.77h24.26c1.4,0,2.7-.37,3.83-1.02-.05-2.82,.93-5.58,2.76-7.72,1.06-1.25,2.41-2.29,4.01-3.01,1.41-.64,2.87-.97,4.33-1.01l-6.47-28.64Z"/></g><polygon class="t" points="61.14 8.76 62.71 9.04 61.13 8.69 61.14 8.76"/><g><path class="v" d="M69.15,37.68c-.82,.02-1.64,.14-2.45,.35l1.82-.26c-.07,0-.14-.02-.21-.03,.28-.03,.56-.06,.84-.07"/><path class="j" d="M69.18,37.68s-.02,0-.03,0c-.28,0-.56,.04-.84,.07,.07,0,.14,.02,.21,.03l.66-.09Z"/><path class="q" d="M61.14,8.75l5.57,29.28c.82-.21,1.65-.33,2.48-.35l-6.47-28.64-1.57-.29Z"/></g><path class="e" d="M4.41,40.17l-1.21-1.22,1.21,1.22Z"/><polygon class="m" points="14.68 28.74 12.13 28.74 12.13 31.3 4.47 37.86 3.19 38.95 4.41 40.17 7.02 37.86 14.32 31.99 14.68 28.74"/><g><path class="f" d="M5.1,51.68v0m20.43,0v0"/><path class="s" d="M25.45,50.44h-5.18c.11,.41,.16,.84,.16,1.28h5.11v-.05c0-.42-.04-.83-.09-1.23m-15.07,0H5.19c-.05,.4-.09,.81-.09,1.23,0,.02,0,.03,0,.05h5.11c0-.44,.06-.87,.16-1.28"/><path class="i" d="M20.27,50.44H10.38c-.11,.41-.16,.84-.16,1.28h10.21c0-.44-.06-.87-.16-1.28"/></g><path class="l" d="M4.49,52.39c.35,5.68,5.07,10.17,10.83,10.17,5.77,0,10.48-4.49,10.83-10.17,.02-.35-.25-.65-.6-.68-.35-.02-.65,.25-.68,.6-.31,5.01-4.47,8.98-9.56,8.97-5.09,0-9.25-3.97-9.56-8.97-.02-.35-.32-.62-.68-.6-.35,.02-.62,.32-.6,.68Z"/><path class="l" d="M9.62,52.43c.35,2.84,2.77,5.03,5.7,5.03,2.93,0,5.35-2.19,5.7-5.03,.04-.35-.21-.67-.56-.71-.35-.04-.67,.2-.71,.55-.27,2.2-2.15,3.91-4.43,3.91s-4.16-1.71-4.43-3.91c-.04-.35-.36-.6-.71-.55-.35,.04-.6,.36-.56,.71Z"/><path class="l" d="M15.96,58.09v-1.28c0-.35-.29-.64-.64-.64s-.64,.29-.64,.64v1.28c0,.35,.29,.64,.64,.64s.64-.29,.64-.64"/><path class="l" d="M19.06,56.92l-.64-1.1c-.18-.31-.57-.41-.87-.23s-.41,.57-.23,.87l.64,1.1c.18,.31,.57,.41,.87,.23,.31-.18,.41-.57,.23-.87"/><path class="l" d="M21.17,54.35l-1.1-.64c-.31-.18-.7-.07-.87,.23-.18,.3-.07,.7,.23,.87l1.11,.64c.3,.18,.7,.07,.87-.23,.18-.3,.07-.7-.23-.87"/><path class="l" d="M10.58,53.71l-1.11,.64c-.3,.18-.41,.57-.23,.87,.18,.3,.57,.41,.87,.23l1.11-.64c.31-.17,.41-.57,.24-.87-.18-.3-.57-.41-.87-.23"/><path class="l" d="M12.22,55.81l-.64,1.11c-.18,.3-.07,.7,.23,.87,.31,.18,.7,.07,.87-.23l.64-1.11c.18-.3,.07-.7-.23-.87s-.7-.07-.87,.23"/><path class="l" d="M60.36,54.47c1.22,4.66,5.46,8.09,10.5,8.09,5.99,0,10.85-4.86,10.85-10.85,0-2.13-.62-4.12-1.67-5.79-.19-.3-.58-.39-.88-.2-.3,.19-.39,.58-.2,.88,.93,1.48,1.48,3.23,1.48,5.11,0,2.65-1.07,5.04-2.8,6.77-1.73,1.73-4.12,2.8-6.77,2.8-4.45,0-8.18-3.03-9.26-7.14-.09-.34-.44-.54-.78-.46-.34,.09-.54,.44-.46,.78Z"/><path class="l" d="M65.75,51.71h-.64c0,3.17,2.57,5.74,5.74,5.74s5.74-2.57,5.74-5.74-2.57-5.74-5.74-5.74-5.74,2.57-5.74,5.74h1.28c0-2.47,2-4.46,4.47-4.47,2.47,0,4.46,2,4.47,4.47,0,2.47-2,4.46-4.47,4.47-2.47,0-4.46-2-4.47-4.47h-.64Z"/><path class="l" d="M71.5,46.6v-1.28c0-.35-.29-.64-.64-.64s-.64,.29-.64,.64v1.28c0,.35,.29,.64,.64,.64s.64-.29,.64-.64"/><path class="l" d="M71.5,58.09v-1.28c0-.35-.29-.64-.64-.64s-.64,.29-.64,.64v1.28c0,.35,.29,.64,.64,.64s.64-.29,.64-.64"/><path class="l" d="M68.86,46.97l-.64-1.11c-.18-.3-.57-.41-.87-.23s-.41,.57-.23,.87l.64,1.11c.18,.3,.57,.41,.87,.23s.41-.57,.23-.87"/><path class="l" d="M74.6,56.92l-.64-1.1c-.18-.31-.57-.41-.87-.23s-.41,.57-.23,.87l.64,1.1c.18,.31,.57,.41,.87,.23,.31-.18,.41-.57,.23-.87"/><path class="l" d="M66.75,48.6l-1.11-.64c-.3-.18-.7-.07-.87,.23-.18,.31-.07,.7,.24,.87l1.11,.64c.31,.18,.7,.07,.87-.23,.18-.31,.07-.7-.23-.87"/><path class="l" d="M76.7,54.35l-1.1-.64c-.31-.18-.7-.07-.87,.23-.18,.3-.07,.7,.23,.87l1.11,.64c.3,.18,.7,.07,.87-.23s.07-.7-.23-.87"/><path class="l" d="M65.75,51.07h-1.28c-.35,0-.64,.29-.64,.64s.29,.64,.64,.64h1.28c.35,0,.64-.29,.64-.64s-.29-.64-.64-.64"/><path class="l" d="M77.24,51.07h-1.27c-.35,0-.64,.29-.64,.64s.29,.64,.64,.64h1.27c.35,0,.64-.29,.64-.64s-.29-.64-.64-.64"/><path class="l" d="M66.12,53.71l-1.11,.64c-.3,.18-.41,.57-.23,.87,.18,.3,.57,.41,.87,.23l1.11-.64c.3-.18,.41-.57,.23-.87s-.57-.41-.87-.23"/><path class="l" d="M76.07,47.96l-1.1,.64c-.31,.18-.41,.57-.23,.87,.18,.31,.57,.41,.87,.23l1.1-.64c.31-.18,.41-.57,.23-.87-.18-.31-.57-.41-.87-.23"/><path class="l" d="M67.75,55.81l-.64,1.11c-.18,.3-.07,.7,.23,.87,.31,.18,.7,.07,.87-.23l.64-1.11c.18-.3,.07-.7-.23-.87s-.7-.07-.87,.23"/><path class="l" d="M73.5,45.86l-.64,1.1c-.18,.31-.07,.7,.23,.87,.3,.18,.7,.07,.87-.23l.64-1.1c.18-.31,.07-.7-.23-.87-.31-.18-.7-.07-.87,.23"/><path class="l" d="M59.1,53.88l.61,.18,.02-.07c.12-.37,.72-2.15,1.94-4.11,1.22-1.97,3.06-4.1,5.61-5.25,1.65-.74,3.45-1.01,5.17-1.01,1.97,0,3.82,.35,5.17,.7,.68,.18,1.23,.35,1.61,.48,.19,.07,.34,.12,.44,.16l.14,.06c.24,.1,.52,.04,.7-.15,.18-.19,.23-.47,.12-.71-2.03-4.49-6.44-7.15-11.07-7.15-1.67,0-3.36,.35-4.98,1.07-4.49,2.03-7.15,6.44-7.15,11.07,0,1.67,.35,3.36,1.07,4.98,.11,.24,.36,.39,.63,.37,.27-.02,.49-.2,.57-.46l-.61-.18,.58-.26c-.65-1.45-.96-2.96-.96-4.45,0-4.14,2.38-8.09,6.4-9.9,1.45-.65,2.96-.96,4.45-.96,4.14,0,8.09,2.38,9.9,6.4l.58-.26,.24-.59s-3.61-1.5-7.85-1.5c-1.85,0-3.83,.28-5.69,1.12-3.07,1.39-5.12,3.95-6.42,6.15-1.3,2.2-1.84,4.05-1.85,4.08l.61,.18,.58-.26-.58,.26Z"/><path class="l" d="M54.26,49.79H31.28c-.35,0-.64,.29-.64,.64s.29,.64,.64,.64h22.98c.35,0,.64-.29,.64-.64s-.29-.64-.64-.64"/><path class="l" d="M62.49,10.99l5.83,25.77c.08,.34,.42,.56,.76,.48,.34-.08,.56-.42,.48-.76l-5.83-25.77c-.08-.34-.42-.56-.76-.48-.34,.08-.56,.42-.48,.76"/><path class="l" d="M60,36.39c0-.4,.01-1.61,.01-3.33,0-5.52-.13-16.36-1.3-23.5-.06-.35-.38-.58-.73-.53-.35,.06-.58,.38-.53,.73,1.14,6.97,1.28,17.8,1.28,23.29,0,1.72-.01,2.91-.01,3.33,0,.35,.29,.64,.64,.64s.64-.29,.64-.64Z"/><path class="l" d="M35.75,30v1.28h.64l-.2-.6c-.07,.02-1.14,.39-2.2,1.63-1.06,1.23-2.07,3.32-2.07,6.64,0,.35,.29,.64,.64,.64s.64-.29,.64-.64c0-3.07,.91-4.81,1.76-5.81,.43-.5,.85-.82,1.16-1.01,.16-.1,.28-.16,.36-.2l.09-.04h.02l-.05-.15,.05,.14h0l-.05-.14,.05,.14c.26-.09,.44-.33,.44-.61v-1.28c0-.35-.29-.64-.64-.64s-.64,.29-.64,.64Z"/><path class="l" d="M3.61,39.42l8.94-7.66c.14-.12,.22-.3,.22-.49v-1.28c0-.35-.29-.64-.64-.64s-.64,.29-.64,.64v.98l-8.71,7.47c-.27,.23-.3,.63-.07,.9,.23,.27,.63,.3,.9,.07Z"/><path class="l" d="M11.49,27.45v-5.11c0-.35-.29-.64-.64-.64s-.64,.29-.64,.64v5.11c0,.35,.29,.64,.64,.64s.64-.29,.64-.64"/><path class="l" d="M37.02,19.79v7.66c0,.35,.29,.64,.64,.64s.64-.29,.64-.64v-7.66c0-.35-.29-.64-.64-.64s-.64,.29-.64,.64"/><path class="l" d="M36.39,22.98H12.13c-.35,0-.64,.29-.64,.64s.29,.64,.64,.64h24.26c.35,0,.64-.29,.64-.64s-.29-.64-.64-.64"/><path class="l" d="M57.77,48.85c-1.03,.6-2.23,.94-3.52,.94-.35,0-.64,.29-.64,.64s.29,.64,.64,.64c1.51,0,2.93-.4,4.15-1.11,.3-.18,.41-.57,.23-.87-.18-.3-.57-.41-.87-.23Z"/><path class="l" d="M58.73,36.39c0,2.3-.93,4.37-2.43,5.87-1.5,1.5-3.57,2.43-5.87,2.43-.35,0-.64,.29-.64,.64s.29,.64,.64,.64c5.29,0,9.58-4.28,9.58-9.58,0-.35-.29-.64-.64-.64s-.64,.29-.64,.64"/><path class="l" d="M38.94,44.68c-1.59,0-3.02-.64-4.06-1.68-1.04-1.04-1.68-2.47-1.68-4.06,0-.35-.29-.64-.64-.64s-.64,.29-.64,.64c0,3.88,3.14,7.02,7.02,7.02,.35,0,.64-.29,.64-.64s-.29-.64-.64-.64Z"/><path class="l" d="M50.53,44.68h-11.59c-.35,0-.64,.29-.64,.64s.29,.64,.64,.64h11.59c.35,0,.64-.29,.64-.64s-.29-.64-.64-.64"/><path class="l" d="M35.11,20.43H12.13c-.35,0-.64,.29-.64,.64s.29,.64,.64,.64h22.98c.35,0,.64-.29,.64-.64s-.29-.64-.64-.64"/><path class="l" d="M11.49,22.34c0-.35,.29-.64,.64-.64s.64-.29,.64-.64-.29-.64-.64-.64c-1.06,0-1.91,.86-1.91,1.91,0,.35,.29,.64,.64,.64s.64-.29,.64-.64Z"/><path class="l" d="M12.13,28.09c-.35,0-.64-.29-.64-.64s-.29-.64-.64-.64-.64,.29-.64,.64c0,1.06,.86,1.91,1.91,1.91,.35,0,.64-.29,.64-.64s-.29-.64-.64-.64Z"/><path class="l" d="M37.03,27.45c0,.35-.29,.64-.64,.64s-.64,.29-.64,.64,.29,.64,.64,.64c1.06,0,1.91-.86,1.91-1.91,0-.35-.29-.64-.64-.64s-.64,.29-.64,.64Z"/><path class="l" d="M35.75,19.79c0,.35-.29,.64-.64,.64s-.64,.29-.64,.64,.29,.64,.64,.64c1.06,0,1.91-.86,1.91-1.91,0-.35-.29-.64-.64-.64s-.64,.29-.64,.64"/><path class="l" d="M36.39,20.43h1.27c.35,0,.64-.29,.64-.64s-.29-.64-.64-.64h-1.27c-.35,0-.64,.29-.64,.64s.29,.64,.64,.64"/><path class="l" d="M36.39,28.09H12.13c-.35,0-.64,.29-.64,.64s.29,.64,.64,.64h24.26c.35,0,.64-.29,.64-.64s-.29-.64-.64-.64"/><path class="l" d="M2.74,39.39l1.28,1.28c.25,.25,.65,.25,.9,0,.25-.25,.25-.65,0-.9l-1.28-1.28c-.25-.25-.65-.25-.9,0-.25,.25-.25,.65,0,.9"/><path class="l" d="M15.32,37.66v-.64c-4.2,0-8.02,1.48-10.8,3.9C1.74,43.33,0,46.7,0,50.43c0,.17,.07,.33,.19,.45,.12,.12,.28,.19,.45,.19H30c.17,0,.33-.07,.45-.19,.12-.12,.19-.28,.19-.45,0-3.73-1.74-7.1-4.52-9.51-2.78-2.42-6.6-3.9-10.8-3.9v1.28c3.9,0,7.43,1.38,9.96,3.58,2.54,2.21,4.08,5.22,4.08,8.55h.64v-.64H.64v.64h.64c0-3.32,1.54-6.34,4.08-8.55,2.54-2.21,6.06-3.58,9.96-3.58v-.64Z"/><path class="l" d="M58.73,7.66c-1.41,0-2.55-1.14-2.55-2.55,0-1.41,1.14-2.55,2.55-2.55,.35,0,.64-.29,.64-.64s-.29-.64-.64-.64c-2.12,0-3.83,1.71-3.83,3.83s1.72,3.83,3.83,3.83c.35,0,.64-.29,.64-.64s-.29-.64-.64-.64"/><path class="l" d="M58.84,2.54l7.02-1.28c.35-.06,.58-.4,.51-.74-.06-.35-.4-.58-.74-.51l-7.02,1.28c-.35,.06-.58,.4-.51,.74s.4,.58,.74,.51"/><path class="l" d="M58.61,8.93l7.02,1.28c.35,.06,.68-.17,.74-.51,.06-.35-.17-.68-.51-.74l-7.02-1.28c-.35-.06-.68,.17-.74,.51-.06,.35,.17,.68,.51,.74"/><path class="l" d="M66.39,9.58V.64C66.39,.29,66.1,0,65.75,0s-.64,.29-.64,.64V9.58c0,.35,.29,.64,.64,.64s.64-.29,.64-.64"/><path class="l" d="M50.07,5.8l.18,.61,.18-.03c.27,0,.53,.18,.61,.46l.03,.18c0,.27-.18,.53-.46,.61l-.18,.03c-.27,0-.53-.18-.61-.46l-.03-.18c0-.28,.18-.53,.46-.61l-.18-.61-.18-.61c-.83,.25-1.38,1.01-1.37,1.84,0,.18,.03,.36,.08,.54,.24,.83,1.01,1.38,1.84,1.38,.18,0,.36-.03,.54-.08,.83-.25,1.38-1.01,1.37-1.83,0-.18-.03-.36-.08-.54-.24-.83-1-1.38-1.83-1.37-.18,0-.37,.03-.55,.08l.18,.61Z"/><path class="l" d="M50.97,8.86l5.18-1.53c.34-.1,.53-.46,.43-.79-.1-.34-.46-.53-.79-.43l-5.18,1.53c-.34,.1-.53,.46-.43,.79,.1,.34,.46,.53,.79,.43"/><path class="l" d="M50.25,6.41l5.62-1.65c.34-.1,.53-.45,.43-.79-.1-.34-.46-.53-.79-.43l-5.62,1.65c-.34,.1-.53,.45-.43,.79,.1,.34,.45,.53,.79,.43"/><path class="l" d="M4.67,34.44l3.83-1.28c.33-.11,.51-.47,.4-.81-.11-.33-.47-.52-.81-.4l-3.83,1.28c-.33,.11-.51,.47-.4,.81,.11,.33,.47,.52,.81,.4"/><path class="l" d="M3.83,33.83v2.55c0,.35,.29,.64,.64,.64s.64-.29,.64-.64v-2.55c0-.35-.29-.64-.64-.64s-.64,.29-.64,.64"/><path class="l" d="M58.09,1.92v6.38c0,.35,.29,.64,.64,.64s.64-.29,.64-.64V1.92c0-.35-.29-.64-.64-.64s-.64,.29-.64,.64"/></g></g></g></svg>