<?xml version="1.0" encoding="UTF-8"?><svg xmlns="http://www.w3.org/2000/svg" viewBox="0 0 90.49 20.59"><g id="a"/><g id="b"><g id="c"><g><path d="M18.97,12.02L21.02,0h6.08l-4.8,20.38h-5.37l-3.37-12.09-3.39,12.09H4.8L0,0H6.08l2.02,12.3L11.34,0h4.43l3.2,12.02Z"/><path d="M46.98,12.02L49.03,0h6.08l-4.8,20.38h-5.37l-3.37-12.09-3.39,12.09h-5.37L28.01,0h6.08l2.02,12.3L39.35,0h4.43l3.2,12.02Z"/><path d="M74.99,12.02l2.05-12.02h6.08l-4.8,20.38h-5.37l-3.37-12.09-3.39,12.09h-5.37L56.02,0h6.08l2.02,12.3,3.24-12.3h4.43l3.2,12.02Z"/><path d="M86.99,14.22c1,0,1.84,.3,2.5,.9,.67,.6,1,1.36,1,2.29s-.33,1.69-1,2.29c-.67,.6-1.5,.89-2.5,.89s-1.86-.3-2.51-.9c-.66-.6-.99-1.36-.99-2.28s.33-1.68,.99-2.28c.66-.6,1.5-.9,2.51-.9Z"/></g></g></g></svg>