<?xml version="1.0" encoding="UTF-8"?><svg xmlns="http://www.w3.org/2000/svg" viewBox="0 0 22.54 18.32"><defs><style>.d{fill:#9e9e9e;}</style></defs><g id="a"/><g id="b"><g id="c"><path class="d" d="M7.09,18.32c8.51,0,13.16-7.05,13.16-13.16,0-.2,0-.4-.01-.6,.9-.65,1.69-1.47,2.31-2.39-.83,.37-1.72,.62-2.66,.73,.96-.57,1.69-1.48,2.03-2.56-.89,.53-1.88,.92-2.94,1.12-.84-.9-2.05-1.46-3.38-1.46-2.55,0-4.63,2.07-4.63,4.62,0,.36,.04,.72,.12,1.05C7.26,5.49,3.85,3.65,1.57,.85c-.4,.68-.63,1.48-.63,2.32,0,1.6,.82,3.02,2.06,3.85-.76-.02-1.47-.23-2.09-.58,0,.02,0,.04,0,.06,0,2.24,1.59,4.11,3.71,4.53-.39,.11-.8,.16-1.22,.16-.3,0-.59-.03-.87-.08,.59,1.84,2.3,3.17,4.32,3.21-1.58,1.24-3.58,1.98-5.74,1.98-.37,0-.74-.02-1.1-.06,2.05,1.31,4.48,2.08,7.09,2.08"/></g></g></svg>